<svg xmlns="http://www.w3.org/2000/svg" xmlns:xlink="http://www.w3.org/1999/xlink" xmlns:lucid="lucid" width="1489" height="344"><g transform="translate(-19144 20294)" lucid:page-tab-id="0_0"><path d="M16000-21500h5500v3500h-5500z" fill="#fff"/><path d="M19520-20180.85a6 6 0 0 1 6-6h148a6 6 0 0 1 6 6v121.7a6 6 0 0 1-6 6h-148a6 6 0 0 1-6-6z" fill-opacity="0"/><path d="M19545.73-20186.85h19.74m9.86 0h19.74m9.86 0h19.74m9.86 0h19.74m9.86 0h9.87a6 6 0 0 1 6 6v10.14m0 10.13v20.3m0 10.13v20.28m0 10.14v20.3m0 10.13v10.15a6 6 0 0 1-6 6h-9.87m-9.86 0h-19.74m-9.86 0h-19.74m-9.86 0h-19.74m-9.86 0h-19.74m-9.86 0h-9.87a6 6 0 0 1-6-6v-10.14m0-10.13v-20.3m0-10.13v-20.28m0-10.14v-20.3m0-10.13v-10.15a6 6 0 0 1 6-6h9.87" stroke="#000" stroke-width="2" fill="none"/><use xlink:href="#a" transform="matrix(1,0,0,1,19532,-20174.8515625) translate(14.7578125 25.98177083333333)"/><use xlink:href="#b" transform="matrix(1,0,0,1,19532,-20174.8515625) translate(55.7734375 64.70052083333333)"/><use xlink:href="#c" transform="matrix(1,0,0,1,19532,-20174.8515625) translate(-3.718750000000014 103.41927083333334)"/><path d="M19800-20174a6 6 0 0 1 6-6h148a6 6 0 0 1 6 6v108a6 6 0 0 1-6 6h-148a6 6 0 0 1-6-6z" fill-opacity="0"/><path d="M19825.73-20180h19.74m9.86 0h19.74m9.86 0h19.74m9.86 0h19.74m9.86 0h9.87a6 6 0 0 1 6 6v9m0 9v18m0 9v18m0 9v18m0 9v9a6 6 0 0 1-6 6h-9.87m-9.86 0h-19.74m-9.86 0h-19.74m-9.86 0h-19.74m-9.86 0h-19.74m-9.86 0h-9.87a6 6 0 0 1-6-6v-9m0-9v-18m0-9v-18m0-9v-18m0-9v-9a6 6 0 0 1 6-6h9.87" stroke="#000" stroke-width="2" fill="none"/><use xlink:href="#d" transform="matrix(1,0,0,1,19812,-20168) translate(18.214843749999993 40.833333333333336)"/><use xlink:href="#e" transform="matrix(1,0,0,1,19812,-20168) translate(22.257812500000007 73.09895833333334)"/><path d="M19682-20120h98.5" stroke="#3a414a" stroke-width="2" fill="none"/><path d="M19682.03-20119.03h-1.03v-1.94h1.03z" stroke="#3a414a" stroke-width=".05" fill="#3a414a"/><path d="M19795.76-20120l-14.26 4.63v-9.26z" stroke="#3a414a" stroke-width="2" fill="#3a414a"/><path d="M20080-20174a6 6 0 0 1 6-6h148a6 6 0 0 1 6 6v108a6 6 0 0 1-6 6h-148a6 6 0 0 1-6-6z" fill-opacity="0"/><path d="M20105.73-20180h19.74m9.86 0h19.74m9.86 0h19.74m9.86 0h19.74m9.86 0h9.87a6 6 0 0 1 6 6v9m0 9v18m0 9v18m0 9v18m0 9v9a6 6 0 0 1-6 6h-9.87m-9.86 0h-19.74m-9.86 0h-19.74m-9.86 0h-19.74m-9.86 0h-19.74m-9.86 0h-9.87a6 6 0 0 1-6-6v-9m0-9v-18m0-9v-18m0-9v-18m0-9v-9a6 6 0 0 1 6-6h9.87" stroke="#000" stroke-width="2" fill="none"/><use xlink:href="#f" transform="matrix(1,0,0,1,20092,-20168) translate(22.257812500000007 37.833333333333336)"/><use xlink:href="#g" transform="matrix(1,0,0,1,20092,-20168) translate(21.932291666666664 76.55208333333334)"/><path d="M19962-20120h98.5" stroke="#3a414a" stroke-width="2" fill="none"/><path d="M19962.03-20119.03h-1.03v-1.94h1.03z" stroke="#3a414a" stroke-width=".05" fill="#3a414a"/><path d="M20075.76-20120l-14.26 4.63v-9.26z" stroke="#3a414a" stroke-width="2" fill="#3a414a"/><path d="M19240-20174a6 6 0 0 1 6-6h148a6 6 0 0 1 6 6v108a6 6 0 0 1-6 6h-148a6 6 0 0 1-6-6z" fill-opacity="0"/><path d="M19265.73-20180h19.74m9.86 0h19.74m9.86 0h19.74m9.86 0h19.74m9.86 0h9.87a6 6 0 0 1 6 6v9m0 9v18m0 9v18m0 9v18m0 9v9a6 6 0 0 1-6 6h-9.87m-9.86 0h-19.74m-9.86 0h-19.74m-9.86 0h-19.74m-9.86 0h-19.74m-9.86 0h-9.87a6 6 0 0 1-6-6v-9m0-9v-18m0-9v-18m0-9v-18m0-9v-9a6 6 0 0 1 6-6h9.87" stroke="#000" stroke-width="2" fill="none"/><use xlink:href="#h" transform="matrix(1,0,0,1,19252,-20168) translate(45.252604166666664 58.833333333333336)"/><path d="M19402-20120h98.5" stroke="#3a414a" stroke-width="2" fill="none"/><path d="M19402.03-20119.03h-1.03v-1.94h1.03z" stroke="#3a414a" stroke-width=".05" fill="#3a414a"/><path d="M19515.76-20120l-14.26 4.63v-9.26z" stroke="#3a414a" stroke-width="2" fill="#3a414a"/><path d="M20360-20174a6 6 0 0 1 6-6h148a6 6 0 0 1 6 6v108a6 6 0 0 1-6 6h-148a6 6 0 0 1-6-6z" fill-opacity="0"/><path d="M20385.73-20180h19.74m9.86 0h19.74m9.86 0h19.74m9.86 0h19.74m9.86 0h9.87a6 6 0 0 1 6 6v9m0 9v18m0 9v18m0 9v18m0 9v9a6 6 0 0 1-6 6h-9.87m-9.86 0h-19.74m-9.86 0h-19.74m-9.86 0h-19.74m-9.86 0h-19.74m-9.86 0h-9.87a6 6 0 0 1-6-6v-9m0-9v-18m0-9v-18m0-9v-18m0-9v-9a6 6 0 0 1 6-6h9.87" stroke="#000" stroke-width="2" fill="none"/><use xlink:href="#h" transform="matrix(1,0,0,1,20372,-20168) translate(45.252604166666664 58.833333333333336)"/><path d="M20242-20120h98.5" stroke="#3a414a" stroke-width="2" fill="none"/><path d="M20242.03-20119.03h-1.03v-1.94h1.03z" stroke="#3a414a" stroke-width=".05" fill="#3a414a"/><path d="M20355.76-20120l-14.26 4.63v-9.26z" stroke="#3a414a" stroke-width="2" fill="#3a414a"/><defs><path d="M783 20c-382 0-661-292-661-764 0-473 279-766 661-766 302 0 548 182 601 489h-190c-42-204-217-313-411-313-268 0-476 208-476 590 0 381 209 588 476 588 195 0 369-110 411-313h190c-52 303-296 489-601 489" id="i"/><path d="M613 24c-304 0-509-231-509-576 0-350 205-580 509-580 305 0 511 230 511 580 0 345-206 576-511 576zm0-161c226 0 329-195 329-415 0-222-103-419-329-419-223 0-326 196-326 419 0 220 103 415 326 415" id="j"/><path d="M338-670V0H158v-1118h173l1 207c72-158 192-221 342-221 226 0 378 139 378 422V0H872v-695c0-172-96-275-252-275-161 0-282 109-282 300" id="k"/><path d="M628 24c-324 0-524-230-524-574 0-343 198-582 503-582 237 0 487 146 487 559v75H286c9 234 145 362 343 362 132 0 231-58 273-172l174 48C1024-91 857 24 628 24zM287-650h624c-17-190-120-322-304-322-192 0-309 151-320 322" id="l"/><path d="M613 24c-304 0-509-231-509-576 0-350 205-580 509-580 216 0 392 114 453 309l-173 49c-33-115-133-197-280-197-223 0-326 196-326 419 0 220 103 415 326 415 150 0 252-85 285-206l172 49C1010-95 832 24 613 24" id="m"/><path d="M598-1118v154H368v674c0 100 37 144 132 144 23 0 62-6 92-12L629-6c-37 13-88 20-134 20-193 0-307-107-307-290v-688H20v-154h168v-266h180v266h230" id="n"/><g id="a"><use transform="matrix(0.013020833333333334,0,0,0.013020833333333334,0,0)" xlink:href="#i"/><use transform="matrix(0.013020833333333334,0,0,0.013020833333333334,19.479166666666668,0)" xlink:href="#j"/><use transform="matrix(0.013020833333333334,0,0,0.013020833333333334,35.46875,0)" xlink:href="#k"/><use transform="matrix(0.013020833333333334,0,0,0.013020833333333334,51.223958333333336,0)" xlink:href="#k"/><use transform="matrix(0.013020833333333334,0,0,0.013020833333333334,66.97916666666667,0)" xlink:href="#l"/><use transform="matrix(0.013020833333333334,0,0,0.013020833333333334,82.52604166666667,0)" xlink:href="#m"/><use transform="matrix(0.013020833333333334,0,0,0.013020833333333334,97.76041666666667,0)" xlink:href="#n"/></g><g id="b"><use transform="matrix(0.013020833333333334,0,0,0.013020833333333334,0,0)" xlink:href="#n"/><use transform="matrix(0.013020833333333334,0,0,0.013020833333333334,8.463541666666668,0)" xlink:href="#j"/></g><path d="M458 0L52-1490h194c108 439 233 855 324 1313 92-459 221-873 331-1313h216c110 438 234 854 330 1307 92-455 216-869 323-1307h196L1558 0h-221l-256-944c-26-95-50-200-73-331-22 122-44 223-73 331L680 0H458" id="o"/><path d="M677 24c-213 0-288-135-325-197h-20V0H158v-1490h180v551h14c37-59 106-193 324-193 279 0 474 222 474 576 0 356-194 580-473 580zm-27-161c209 0 317-186 317-421 0-232-105-413-317-413-206 0-314 166-314 413 0 249 111 421 314 421" id="p"/><path d="M657 26c-323 0-524-166-541-416h195c15 169 171 246 346 246 202 0 356-106 356-265 5-203-294-238-475-293-239-73-380-191-380-389 0-252 224-419 512-419 294 0 499 171 508 396H992c-17-145-151-228-328-228-193 0-321 102-321 242 0 156 175 211 284 241l149 41c160 44 422 134 422 412 0 244-197 432-541 432" id="q"/><path d="M158 0v-1490h180v865h22l478-493h223L593-638 1096 0H865L456-523 338-412V0H158" id="r"/><g id="c"><use transform="matrix(0.013020833333333334,0,0,0.013020833333333334,0,0)" xlink:href="#o"/><use transform="matrix(0.013020833333333334,0,0,0.013020833333333334,24.921875,0)" xlink:href="#l"/><use transform="matrix(0.013020833333333334,0,0,0.013020833333333334,40.46875,0)" xlink:href="#p"/><use transform="matrix(0.013020833333333334,0,0,0.013020833333333334,56.796875,0)" xlink:href="#q"/><use transform="matrix(0.013020833333333334,0,0,0.013020833333333334,73.90625,0)" xlink:href="#j"/><use transform="matrix(0.013020833333333334,0,0,0.013020833333333334,89.89583333333333,0)" xlink:href="#m"/><use transform="matrix(0.013020833333333334,0,0,0.013020833333333334,105.13020833333333,0)" xlink:href="#r"/><use transform="matrix(0.013020833333333334,0,0,0.013020833333333334,119.16666666666667,0)" xlink:href="#l"/><use transform="matrix(0.013020833333333334,0,0,0.013020833333333334,134.71354166666669,0)" xlink:href="#n"/></g><path d="M180 0v-1490h510c348 0 508 194 508 460 0 198-88 351-276 417L1256 0h-220L726-579c-117 2-238 0-356 1V0H180zm190-747h312c235 0 327-108 327-283 0-177-92-293-329-293H370v576" id="s"/><path d="M158 0v-1118h180V0H158zm91-1301c-68 0-125-53-125-119s57-119 125-119c69 0 126 53 126 119s-57 119-126 119" id="t"/><path d="M481 0L54-1118h197c107 314 236 620 325 951 87-331 217-637 324-951h197L670 0H481" id="u"/><g id="d"><use transform="matrix(0.013020833333333334,0,0,0.013020833333333334,0,0)" xlink:href="#s"/><use transform="matrix(0.013020833333333334,0,0,0.013020833333333334,16.770833333333336,0)" xlink:href="#l"/><use transform="matrix(0.013020833333333334,0,0,0.013020833333333334,32.317708333333336,0)" xlink:href="#m"/><use transform="matrix(0.013020833333333334,0,0,0.013020833333333334,47.552083333333336,0)" xlink:href="#l"/><use transform="matrix(0.013020833333333334,0,0,0.013020833333333334,63.098958333333336,0)" xlink:href="#t"/><use transform="matrix(0.013020833333333334,0,0,0.013020833333333334,69.55729166666667,0)" xlink:href="#u"/><use transform="matrix(0.013020833333333334,0,0,0.013020833333333334,84.02343750000001,0)" xlink:href="#l"/></g><path d="M763 24c-353 0-583-224-583-531v-983h190v968c0 214 149 370 393 370 243 0 391-156 391-370v-968h190v983c0 307-230 531-581 531" id="v"/><path d="M158 418v-1536h174v179h20c37-59 106-193 324-193 279 0 474 222 474 576 0 356-194 580-473 580-213 0-288-135-325-197h-14v591H158zm492-555c209 0 317-186 317-421 0-232-105-413-317-413-206 0-314 166-314 413 0 249 111 421 314 421" id="w"/><path d="M577 24c-279 0-473-224-473-580 0-354 195-576 474-576 218 0 287 134 324 193h14v-551h180V0H922v-173h-20C865-111 790 24 577 24zm27-161c203 0 314-172 314-421 0-247-108-413-314-413-212 0-317 181-317 413 0 235 108 421 317 421" id="x"/><path d="M471 26C259 26 90-98 90-318c0-256 228-303 435-329 202-27 287-16 287-108 0-139-79-219-234-219-161 0-248 86-283 164l-173-57c86-203 278-265 451-265 150 0 419 46 419 395V0H815v-152h-12C765-73 660 26 471 26zm31-159c199 0 310-134 310-271v-155c-30 35-226 55-295 64-131 17-246 59-246 186 0 116 97 176 231 176" id="y"/><g id="e"><use transform="matrix(0.013020833333333334,0,0,0.013020833333333334,0,0)" xlink:href="#v"/><use transform="matrix(0.013020833333333334,0,0,0.013020833333333334,19.84375,0)" xlink:href="#w"/><use transform="matrix(0.013020833333333334,0,0,0.013020833333333334,36.171875,0)" xlink:href="#x"/><use transform="matrix(0.013020833333333334,0,0,0.013020833333333334,52.5,0)" xlink:href="#y"/><use transform="matrix(0.013020833333333334,0,0,0.013020833333333334,67.47395833333333,0)" xlink:href="#n"/><use transform="matrix(0.013020833333333334,0,0,0.013020833333333334,75.93749999999999,0)" xlink:href="#l"/></g><g id="f"><use transform="matrix(0.013020833333333334,0,0,0.013020833333333334,0,0)" xlink:href="#v"/><use transform="matrix(0.013020833333333334,0,0,0.013020833333333334,19.84375,0)" xlink:href="#w"/><use transform="matrix(0.013020833333333334,0,0,0.013020833333333334,36.171875,0)" xlink:href="#x"/><use transform="matrix(0.013020833333333334,0,0,0.013020833333333334,52.5,0)" xlink:href="#y"/><use transform="matrix(0.013020833333333334,0,0,0.013020833333333334,67.47395833333333,0)" xlink:href="#n"/><use transform="matrix(0.013020833333333334,0,0,0.013020833333333334,75.93749999999999,0)" xlink:href="#l"/></g><path d="M645 0H180v-1490h484c435 0 692 280 692 742 0 466-257 748-711 748zM370-168h263c363 0 539-218 539-580 0-358-176-574-521-574H370v1154" id="z"/><path d="M538 24C308 24 148-78 108-271l171-41c32 123 123 178 257 178 156 0 256-77 256-169 0-77-54-128-164-154l-186-44c-203-48-300-148-300-305 0-192 176-326 414-326 230 0 351 112 402 269l-163 42c-31-80-94-158-238-158-133 0-233 69-233 162 0 83 57 129 188 160l169 40c203 48 298 149 298 302 0 196-179 339-441 339" id="A"/><path d="M338-1490V0H158v-1490h180" id="B"/><path d="M140 405l46-156c120 36 205 19 263-150l32-93L54-1118h197c107 313 237 620 324 950 87-331 219-637 326-950h196L606 167c-68 178-176 259-334 259-64 0-113-12-132-21" id="C"/><g id="g"><use transform="matrix(0.013020833333333334,0,0,0.013020833333333334,0,0)" xlink:href="#z"/><use transform="matrix(0.013020833333333334,0,0,0.013020833333333334,19.244791666666668,0)" xlink:href="#t"/><use transform="matrix(0.013020833333333334,0,0,0.013020833333333334,25.703125,0)" xlink:href="#A"/><use transform="matrix(0.013020833333333334,0,0,0.013020833333333334,39.778645833333336,0)" xlink:href="#w"/><use transform="matrix(0.013020833333333334,0,0,0.013020833333333334,56.106770833333336,0)" xlink:href="#B"/><use transform="matrix(0.013020833333333334,0,0,0.013020833333333334,62.56510416666667,0)" xlink:href="#y"/><use transform="matrix(0.013020833333333334,0,0,0.013020833333333334,77.1484375,0)" xlink:href="#C"/></g><path d="M370-1490V0H180v-1490h190" id="D"/><g id="h"><use transform="matrix(0.013020833333333334,0,0,0.013020833333333334,0,0)" xlink:href="#D"/><use transform="matrix(0.013020833333333334,0,0,0.013020833333333334,7.161458333333334,0)" xlink:href="#x"/><use transform="matrix(0.013020833333333334,0,0,0.013020833333333334,23.489583333333336,0)" xlink:href="#B"/><use transform="matrix(0.013020833333333334,0,0,0.013020833333333334,29.947916666666675,0)" xlink:href="#l"/></g></defs></g></svg>