<svg xmlns="http://www.w3.org/2000/svg" xmlns:xlink="http://www.w3.org/1999/xlink" xmlns:lucid="lucid" width="1300" height="288"><g transform="translate(-19107 21209)" lucid:page-tab-id="0_0"><path d="M16000-21500h4500v3500h-4500z" fill="#fff"/><path d="M19520-21114a6 6 0 0 1 6-6h148a6 6 0 0 1 6 6v108a6 6 0 0 1-6 6h-148a6 6 0 0 1-6-6z" fill-opacity="0"/><path d="M19545.73-21120h19.74m9.86 0h19.74m9.86 0h19.74m9.86 0h19.74m9.86 0h9.87a6 6 0 0 1 6 6v9m0 9v18m0 9v18m0 9v18m0 9v9a6 6 0 0 1-6 6h-9.87m-9.86 0h-19.74m-9.86 0h-19.74m-9.86 0h-19.74m-9.86 0h-19.74m-9.86 0h-9.87a6 6 0 0 1-6-6v-9m0-9v-18m0-9v-18m0-9v-18m0-9v-9a6 6 0 0 1 6-6h9.87" stroke="#000" stroke-width="2" fill="none"/><use xlink:href="#a" transform="matrix(1,0,0,1,19532,-21108) translate(9.051432291666657 60.13888888888889)"/><path d="M19800-21114a6 6 0 0 1 6-6h148a6 6 0 0 1 6 6v108a6 6 0 0 1-6 6h-148a6 6 0 0 1-6-6z" fill-opacity="0"/><path d="M19825.73-21120h19.74m9.86 0h19.74m9.86 0h19.74m9.86 0h19.74m9.86 0h9.87a6 6 0 0 1 6 6v9m0 9v18m0 9v18m0 9v18m0 9v9a6 6 0 0 1-6 6h-9.87m-9.86 0h-19.74m-9.86 0h-19.74m-9.86 0h-19.74m-9.86 0h-19.74m-9.86 0h-9.87a6 6 0 0 1-6-6v-9m0-9v-18m0-9v-18m0-9v-18m0-9v-9a6 6 0 0 1 6-6h9.87" stroke="#000" stroke-width="2" fill="none"/><use xlink:href="#b" transform="matrix(1,0,0,1,19812,-21108) translate(4.3650173611111 36.13888888888889)"/><use xlink:href="#c" transform="matrix(1,0,0,1,19812,-21108) translate(34.139322916666664 81.3107638888889)"/><path d="M19682-21060h98.5" stroke="#3a414a" stroke-width="2" fill="none"/><path d="M19682.03-21059.03h-1.03v-1.94h1.03z" stroke="#3a414a" stroke-width=".05" fill="#3a414a"/><path d="M19795.76-21060l-14.26 4.63v-9.26z" stroke="#3a414a" stroke-width="2" fill="#3a414a"/><path d="M20080-21114a6 6 0 0 1 6-6h148a6 6 0 0 1 6 6v108a6 6 0 0 1-6 6h-148a6 6 0 0 1-6-6z" fill-opacity="0"/><path d="M20105.73-21120h19.74m9.86 0h19.74m9.86 0h19.74m9.86 0h19.74m9.86 0h9.87a6 6 0 0 1 6 6v9m0 9v18m0 9v18m0 9v18m0 9v9a6 6 0 0 1-6 6h-9.87m-9.86 0h-19.74m-9.86 0h-19.74m-9.86 0h-19.74m-9.86 0h-19.74m-9.86 0h-9.87a6 6 0 0 1-6-6v-9m0-9v-18m0-9v-18m0-9v-18m0-9v-9a6 6 0 0 1 6-6h9.87" stroke="#000" stroke-width="2" fill="none"/><use xlink:href="#d" transform="matrix(1,0,0,1,20092,-21108) translate(33.87890625 62.75)"/><path d="M19962-21060h98.5" stroke="#3a414a" stroke-width="2" fill="none"/><path d="M19962.03-21059.03h-1.03v-1.94h1.03z" stroke="#3a414a" stroke-width=".05" fill="#3a414a"/><path d="M20075.76-21060l-14.26 4.63v-9.26z" stroke="#3a414a" stroke-width="2" fill="#3a414a"/><path d="M19240-21114a6 6 0 0 1 6-6h148a6 6 0 0 1 6 6v108a6 6 0 0 1-6 6h-148a6 6 0 0 1-6-6z" fill-opacity="0"/><path d="M19265.73-21120h19.74m9.86 0h19.74m9.86 0h19.74m9.86 0h19.74m9.86 0h9.87a6 6 0 0 1 6 6v9m0 9v18m0 9v18m0 9v18m0 9v9a6 6 0 0 1-6 6h-9.87m-9.86 0h-19.74m-9.86 0h-19.74m-9.86 0h-19.74m-9.86 0h-19.74m-9.86 0h-9.87a6 6 0 0 1-6-6v-9m0-9v-18m0-9v-18m0-9v-18m0-9v-9a6 6 0 0 1 6-6h9.87" stroke="#000" stroke-width="2" fill="none"/><use xlink:href="#d" transform="matrix(1,0,0,1,19252,-21108) translate(33.87890625 62.75)"/><path d="M19402-21060h98.5" stroke="#3a414a" stroke-width="2" fill="none"/><path d="M19402.03-21059.03h-1.03v-1.94h1.03z" stroke="#3a414a" stroke-width=".05" fill="#3a414a"/><path d="M19515.76-21060l-14.26 4.63v-9.26z" stroke="#3a414a" stroke-width="2" fill="#3a414a"/><defs><path d="M657 26c-323 0-524-166-541-416h195c15 169 171 246 346 246 202 0 356-106 356-265 5-203-294-238-475-293-239-73-380-191-380-389 0-252 224-419 512-419 294 0 499 171 508 396H992c-17-145-151-228-328-228-193 0-321 102-321 242 0 156 175 211 284 241l149 41c160 44 422 134 422 412 0 244-197 432-541 432" id="e"/><path d="M628 24c-324 0-524-230-524-574 0-343 198-582 503-582 237 0 487 146 487 559v75H286c9 234 145 362 343 362 132 0 231-58 273-172l174 48C1024-91 857 24 628 24zM287-650h624c-17-190-120-322-304-322-192 0-309 151-320 322" id="f"/><path d="M338-670V0H158v-1118h173l1 207c72-158 192-221 342-221 226 0 378 139 378 422V0H872v-695c0-172-96-275-252-275-161 0-282 109-282 300" id="g"/><path d="M538 24C308 24 148-78 108-271l171-41c32 123 123 178 257 178 156 0 256-77 256-169 0-77-54-128-164-154l-186-44c-203-48-300-148-300-305 0-192 176-326 414-326 230 0 351 112 402 269l-163 42c-31-80-94-158-238-158-133 0-233 69-233 162 0 83 57 129 188 160l169 40c203 48 298 149 298 302 0 196-179 339-441 339" id="h"/><path d="M158 0v-1118h180V0H158zm91-1301c-68 0-125-53-125-119s57-119 125-119c69 0 126 53 126 119s-57 119-126 119" id="i"/><path d="M611 442c-248 0-391-105-460-228l146-94c47 65 117 165 314 165 178 0 307-82 307-266v-224h-17C863-141 792-18 576-18c-268 0-472-195-472-546 0-346 197-568 476-568 216 0 288 133 326 193h17v-179h175V29c0 289-215 413-487 413zm-5-620c203 0 314-146 314-390 0-237-108-403-314-403-213 0-319 180-319 403 0 230 109 390 319 390" id="j"/><g id="a"><use transform="matrix(0.015190972222222224,0,0,0.015190972222222224,0,0)" xlink:href="#e"/><use transform="matrix(0.015190972222222224,0,0,0.015190972222222224,19.960937500000004,0)" xlink:href="#f"/><use transform="matrix(0.015190972222222224,0,0,0.015190972222222224,38.09895833333334,0)" xlink:href="#g"/><use transform="matrix(0.015190972222222224,0,0,0.015190972222222224,56.48003472222223,0)" xlink:href="#h"/><use transform="matrix(0.015190972222222224,0,0,0.015190972222222224,72.90147569444446,0)" xlink:href="#i"/><use transform="matrix(0.015190972222222224,0,0,0.015190972222222224,80.43619791666669,0)" xlink:href="#g"/><use transform="matrix(0.015190972222222224,0,0,0.015190972222222224,98.81727430555557,0)" xlink:href="#j"/></g><path d="M98-1322v-168h1126v168H757V0H567v-1322H98" id="k"/><path d="M158 0v-1118h174v172h12c41-113 157-188 290-188 26 0 70 2 91 3v181c-11-2-60-10-108-10-161 0-279 109-279 260V0H158" id="l"/><path d="M471 26C259 26 90-98 90-318c0-256 228-303 435-329 202-27 287-16 287-108 0-139-79-219-234-219-161 0-248 86-283 164l-173-57c86-203 278-265 451-265 150 0 419 46 419 395V0H815v-152h-12C765-73 660 26 471 26zm31-159c199 0 310-134 310-271v-155c-30 35-226 55-295 64-131 17-246 59-246 186 0 116 97 176 231 176" id="m"/><path d="M158 0v-1118h175l1 205c55-151 181-225 313-225 147 0 245 90 285 228 53-141 190-228 352-228 194 0 352 125 352 384V0h-181v-749c0-161-105-225-225-225-151 0-243 103-243 244V0H807v-767c0-124-93-207-219-207-131 0-250 92-250 270V0H158" id="n"/><path d="M598-1118v154H368v674c0 100 37 144 132 144 23 0 62-6 92-12L629-6c-37 13-88 20-134 20-193 0-307-107-307-290v-688H20v-154h168v-266h180v266h230" id="o"/><g id="b"><use transform="matrix(0.015190972222222224,0,0,0.015190972222222224,0,0)" xlink:href="#k"/><use transform="matrix(0.015190972222222224,0,0,0.015190972222222224,18.3203125,0)" xlink:href="#l"/><use transform="matrix(0.015190972222222224,0,0,0.015190972222222224,30.032552083333336,0)" xlink:href="#m"/><use transform="matrix(0.015190972222222224,0,0,0.015190972222222224,47.50217013888889,0)" xlink:href="#g"/><use transform="matrix(0.015190972222222224,0,0,0.015190972222222224,65.88324652777779,0)" xlink:href="#h"/><use transform="matrix(0.015190972222222224,0,0,0.015190972222222224,82.30468750000001,0)" xlink:href="#n"/><use transform="matrix(0.015190972222222224,0,0,0.015190972222222224,109.55729166666669,0)" xlink:href="#i"/><use transform="matrix(0.015190972222222224,0,0,0.015190972222222224,117.09201388888891,0)" xlink:href="#o"/></g><path d="M645 0H180v-1490h484c435 0 692 280 692 742 0 466-257 748-711 748zM370-168h263c363 0 539-218 539-580 0-358-176-574-521-574H370v1154" id="p"/><g id="c"><use transform="matrix(0.015190972222222224,0,0,0.015190972222222224,0,0)" xlink:href="#p"/><use transform="matrix(0.015190972222222224,0,0,0.015190972222222224,22.452256944444446,0)" xlink:href="#m"/><use transform="matrix(0.015190972222222224,0,0,0.015190972222222224,39.921875,0)" xlink:href="#o"/><use transform="matrix(0.015190972222222224,0,0,0.015190972222222224,50.251736111111114,0)" xlink:href="#m"/></g><path d="M370-1490V0H180v-1490h190" id="q"/><path d="M577 24c-279 0-473-224-473-580 0-354 195-576 474-576 218 0 287 134 324 193h14v-551h180V0H922v-173h-20C865-111 790 24 577 24zm27-161c203 0 314-172 314-421 0-247-108-413-314-413-212 0-317 181-317 413 0 235 108 421 317 421" id="r"/><path d="M338-1490V0H158v-1490h180" id="s"/><g id="d"><use transform="matrix(0.01953125,0,0,0.01953125,0,0)" xlink:href="#q"/><use transform="matrix(0.01953125,0,0,0.01953125,10.7421875,0)" xlink:href="#r"/><use transform="matrix(0.01953125,0,0,0.01953125,35.234375,0)" xlink:href="#s"/><use transform="matrix(0.01953125,0,0,0.01953125,44.921875,0)" xlink:href="#f"/></g></defs></g></svg>