<svg xmlns="http://www.w3.org/2000/svg" xmlns:xlink="http://www.w3.org/1999/xlink" xmlns:lucid="lucid" width="2848" height="2942"><g transform="translate(-16400 20928)" lucid:page-tab-id="0_0"><path d="M-9500-21000h29000V6000H-9500z" fill="#fff"/><path d="M18420.48-19173.3a6 6 0 0 1 6-6h788a6 6 0 0 1 6 6v848a6 6 0 0 1-6 6h-788a6 6 0 0 1-6-6z" fill-opacity="0"/><path d="M18446.7-19179.3h20.2m10.1 0h20.2m10.1 0h20.2m10.1 0h20.22m10.1 0h20.2m10.1 0h20.2m10.12 0h20.2m10.1 0h20.2m10.1 0h20.22m10.1 0h20.2m10.1 0h20.2m10.1 0h20.22m10.1 0h20.2m10.1 0h20.2m10.12 0h20.2m10.1 0h20.2m10.1 0h20.22m10.1 0h20.2m10.1 0h20.2m10.12 0h20.2m10.1 0h20.2m10.1 0h20.22m10.1 0h20.2m10.1 0h20.2m10.1 0h20.22m10.1 0h10.1a6 6 0 0 1 6 6v10.1m0 10.1v20.18m0 10.1v20.2m0 10.08v20.2m0 10.1v20.18m0 10.1v20.18m0 10.1v20.2m0 10.1v20.18m0 10.1v20.18m0 10.1v20.2m0 10.08v20.2m0 10.1v20.18m0 10.1v20.18m0 10.1v20.2m0 10.1v20.18m0 10.1v20.18m0 10.1v20.2m0 10.08v20.2m0 10.1v20.18m0 10.1v20.18m0 10.1v20.2m0 10.1v20.18m0 10.1v20.18m0 10.1v20.2m0 10.08v20.2m0 10.1v20.18m0 10.1v20.18m0 10.1v20.2m0 10.1v10.08a6 6 0 0 1-6 6h-10.1m-10.1 0h-20.2m-10.1 0h-20.2m-10.12 0h-20.2m-10.1 0h-20.2m-10.1 0h-20.22m-10.1 0h-20.2m-10.1 0h-20.2m-10.12 0h-20.2m-10.1 0h-20.2m-10.1 0h-20.22m-10.1 0h-20.2m-10.1 0h-20.2m-10.1 0h-20.22m-10.1 0h-20.2m-10.1 0h-20.2m-10.12 0h-20.2m-10.1 0h-20.2m-10.1 0h-20.22m-10.1 0h-20.2m-10.1 0h-20.2m-10.12 0h-20.2m-10.1 0h-20.2m-10.1 0h-20.22m-10.1 0h-20.2m-10.1 0h-20.2m-10.1 0h-10.12a6 6 0 0 1-6-6v-10.1m0-10.1v-20.18m0-10.1v-20.2m0-10.08v-20.2m0-10.1v-20.18m0-10.1v-20.18m0-10.1v-20.2m0-10.08v-20.2m0-10.1v-20.18m0-10.1v-20.2m0-10.08v-20.2m0-10.1v-20.18m0-10.1v-20.18m0-10.1v-20.2m0-10.08v-20.2m0-10.1v-20.18m0-10.1v-20.2m0-10.08v-20.2m0-10.1v-20.18m0-10.1v-20.18m0-10.1v-20.2m0-10.08v-20.2m0-10.1v-20.18m0-10.1v-20.2m0-10.08v-20.2m0-10.1v-20.18m0-10.1v-20.18m0-10.1v-20.2m0-10.08v-10.1a6 6 0 0 1 6-6h10.1" stroke="#000" stroke-width="2" fill="none"/><path d="M17478.52-18823.3a6 6 0 0 1 6-6h503.02a6 6 0 0 1 6 6v148a6 6 0 0 1-6 6h-503.02a6 6 0 0 1-6-6z" fill-opacity="0"/><path d="M17504.24-18829.3h19.73m9.86 0h19.73m9.86 0h19.73m9.86 0h19.74m9.86 0h19.73m9.86 0h19.72m9.86 0h19.73m9.87 0h19.73m9.86 0h19.73m9.85 0h19.73m9.86 0h19.73m9.86 0h19.73m9.86 0h19.73m9.86 0h19.74m9.86 0h19.72m9.87 0h19.72m9.86 0h9.86a6 6 0 0 1 6 6v9.87m0 9.87v19.73m0 9.87v19.73m0 9.86v19.74m0 9.87v19.73m0 9.86v9.87a6 6 0 0 1-6 6h-9.86m-9.87 0h-19.7m-9.88 0h-19.72m-9.86 0h-19.73m-9.85 0h-19.73m-9.86 0h-19.73m-9.86 0h-19.73m-9.86 0h-19.73m-9.86 0h-19.74m-9.86 0h-19.73m-9.86 0h-19.72m-9.86 0h-19.73m-9.87 0h-19.73m-9.86 0H17593m-9.85 0h-19.73m-9.86 0h-19.73m-9.86 0h-19.73m-9.86 0h-9.86a6 6 0 0 1-6-6v-9.87m0-9.86v-19.74m0-9.86v-19.74m0-9.86v-19.74m0-9.86v-19.73m0-9.87v-9.87a6 6 0 0 1 6-6h9.86" stroke="#000" stroke-width="2" fill="none"/><path d="M16480-19095.2a6 6 0 0 1 6-6h548a6 6 0 0 1 6 6v691.8a6 6 0 0 1-6 6h-548a6 6 0 0 1-6-6z" fill-opacity="0"/><path d="M16506.3-19101.2h20.3m10.14 0h20.3m10.15 0h20.28m10.15 0h20.3m10.14 0h20.3m10.15 0h20.3m10.14 0h20.3m10.15 0h20.3m10.15 0h20.3m10.15 0h20.3m10.14 0h20.3m10.15 0h20.28m10.15 0h20.3m10.14 0h20.3m10.15 0h20.3m10.14 0h20.3m10.15 0h20.3m10.15 0h10.15a6 6 0 0 1 6 6v10.03m0 10.02v20.05m0 10.03v20.05m0 10.03v20.06m0 10.03v20.04m0 10.03v20.05m0 10.02v20.06m0 10.02v20.06m0 10.02v20.05m0 10.03v20.05m0 10.03v20.05m0 10.04v20.05m0 10v20.07m0 10.02v20.05m0 10.02v20.05m0 10.03v20.05m0 10.03v20.05m0 10.03v20.06m0 10.03v20.04m0 10.02v20.06m0 10.02v20.05m0 10.02v20.05m0 10.03v20.05m0 10.03v10.02a6 6 0 0 1-6 6h-10.15m-10.15 0h-20.3m-10.14 0h-20.3m-10.15 0h-20.28m-10.15 0h-20.3m-10.14 0h-20.3m-10.15 0h-20.3m-10.14 0h-20.3m-10.15 0h-20.3m-10.15 0h-20.3m-10.15 0h-20.3m-10.14 0h-20.3m-10.15 0h-20.28m-10.15 0h-20.3m-10.14 0h-20.3m-10.15 0h-20.3m-10.14 0h-20.3m-10.15 0h-20.3m-10.15 0H16486a6 6 0 0 1-6-6v-10.02m0-10.03v-20.05m0-10.03v-20.05m0-10.03v-20.06m0-10.02v-20.06m0-10.02v-20.06m0-10.02v-20.05m0-10.02v-20.05m0-10.03v-20.05m0-10.03v-20.05m0-10.02v-20.06m0-10.03v-20.06m0-10v-20.06m0-10.03v-20.04m0-10.03v-20.05m0-10.03v-20.05m0-10.03v-20.05m0-10.02v-20.06m0-10.02v-20.05m0-10.03v-20.05m0-10.04v-20.05m0-10.02v-20.05m0-10.03v-20.05m0-10.02v-10.03a6 6 0 0 1 6-6h10.15" stroke="#000" stroke-width="2" fill="none"/><path d="M16440-19194a6 6 0 0 1 6-6h1568a6 6 0 0 1 6 6v848a6 6 0 0 1-6 6h-1568a6 6 0 0 1-6-6z" fill-opacity="0"/><path d="M16466.1-19200h20.1m10.06 0h20.1m10.05 0h20.1m10.06 0h20.1m10.06 0h20.1m10.05 0h20.1m10.06 0h20.1m10.05 0h20.1m10.05 0h20.1m10.06 0h20.1m10.04 0h20.1m10.05 0h20.1m10.05 0h20.1m10.05 0h20.1m10.06 0h20.1m10.05 0h20.1m10.06 0h20.1m10.06 0h20.1m10.05 0h20.1m10.06 0h20.1m10.05 0h20.1m10.05 0h20.1m10.06 0h20.1m10.04 0h20.1m10.05 0h20.1m10.05 0h20.1m10.05 0h20.1m10.06 0h20.1m10.05 0h20.1m10.06 0h20.1m10.06 0h20.1m10.05 0h20.1m10.06 0h20.1m10.05 0h20.1m10.05 0h20.1m10.06 0h20.1m10.04 0h20.1m10.05 0h20.1m10.05 0h20.1m10.05 0h20.1m10.06 0h20.1m10.05 0h20.1m10.06 0h20.1m10.06 0h20.1m10.05 0h20.1m10.06 0h20.1m10.05 0h20.1m10.05 0h20.1m10.06 0h20.1m10.04 0h20.1m10.05 0h20.1m10.05 0h10.05a6 6 0 0 1 6 6v10.1m0 10.1v20.18m0 10.1v20.2m0 10.08v20.2m0 10.1v20.18m0 10.1v20.18m0 10.1v20.2m0 10.08v20.2m0 10.1v20.18m0 10.1v20.2m0 10.08v20.2m0 10.1v20.18m0 10.1v20.18m0 10.1v20.2m0 10.08v20.2m0 10.1v20.18m0 10.1v20.2m0 10.08v20.2m0 10.1v20.18m0 10.1v20.18m0 10.1v20.2m0 10.08v20.2m0 10.1v20.18m0 10.1v20.2m0 10.08v20.2m0 10.1v20.18m0 10.1v20.18m0 10.1v20.2m0 10.08v10.1a6 6 0 0 1-6 6h-10.05m-10.05 0h-20.1m-10.06 0h-20.1m-10.05 0h-20.1m-10.06 0h-20.1m-10.06 0h-20.1m-10.05 0h-20.1m-10.06 0h-20.1m-10.05 0h-20.1m-10.05 0h-20.1m-10.06 0h-20.1m-10.04 0h-20.1m-10.05 0h-20.1m-10.05 0h-20.1m-10.05 0h-20.1m-10.06 0h-20.1m-10.05 0h-20.1m-10.06 0h-20.1m-10.06 0h-20.1m-10.05 0h-20.1m-10.06 0h-20.1m-10.05 0h-20.1m-10.05 0h-20.1m-10.06 0h-20.1m-10.04 0h-20.1m-10.05 0h-20.1m-10.05 0h-20.1m-10.05 0h-20.1m-10.06 0h-20.1m-10.05 0h-20.1m-10.06 0h-20.1m-10.06 0h-20.1m-10.05 0h-20.1m-10.06 0h-20.1m-10.05 0h-20.1m-10.05 0h-20.1m-10.06 0h-20.1m-10.04 0h-20.1m-10.05 0h-20.1m-10.05 0h-20.1m-10.05 0h-20.1m-10.06 0h-20.1m-10.05 0h-20.1m-10.06 0h-20.1m-10.06 0h-20.1m-10.05 0h-20.1m-10.06 0h-20.1m-10.05 0h-20.1m-10.05 0h-20.1m-10.06 0h-20.1m-10.04 0h-20.1m-10.05 0h-20.1m-10.05 0H16446a6 6 0 0 1-6-6v-10.1m0-10.1v-20.18m0-10.1v-20.2m0-10.08v-20.2m0-10.1v-20.18m0-10.1v-20.18m0-10.1v-20.2m0-10.08v-20.2m0-10.1v-20.18m0-10.1v-20.2m0-10.08v-20.2m0-10.1v-20.18m0-10.1v-20.18m0-10.1v-20.2m0-10.08v-20.2m0-10.1v-20.18m0-10.1v-20.2m0-10.08v-20.2m0-10.1v-20.18m0-10.1v-20.18m0-10.1v-20.2m0-10.08v-20.2m0-10.1v-20.18m0-10.1v-20.2m0-10.08v-20.2m0-10.1v-20.18m0-10.1v-20.18m0-10.1v-20.2m0-10.08v-10.1a6 6 0 0 1 6-6h10.05" stroke="#000" stroke-width="2" fill="none"/><path d="M16520-18807.1a6 6 0 0 1 6-6h148a6 6 0 0 1 6 6v108a6 6 0 0 1-6 6h-148a6 6 0 0 1-6-6z" stroke="#000" stroke-width="2" fill-opacity="0"/><use xlink:href="#a" transform="matrix(1,0,0,1,16532,-18801.101979166666) translate(34.838541666666664 56.66666666666667)"/><path d="M16520-19063.3a6 6 0 0 1 6-6h148a6 6 0 0 1 6 6v108a6 6 0 0 1-6 6h-148a6 6 0 0 1-6-6z" stroke="#000" stroke-width="2" fill-opacity="0"/><use xlink:href="#b" transform="matrix(1,0,0,1,16532,-19057.298474618783) translate(23.438368055555557 41.22222222222222)"/><use xlink:href="#c" transform="matrix(1,0,0,1,16532,-19057.298474618783) translate(37.30121527777777 67.03472222222223)"/><path d="M16520-18563.3a6 6 0 0 1 6-6h148a6 6 0 0 1 6 6v108a6 6 0 0 1-6 6h-148a6 6 0 0 1-6-6z" stroke="#000" stroke-width="2" fill-opacity="0"/><use xlink:href="#d" transform="matrix(1,0,0,1,16532,-18557.298474618783) translate(11.7890625 53.22222222222222)"/><use xlink:href="#e" transform="matrix(1,0,0,1,16532,-18557.298474618783) translate(64.49739583333334 53.22222222222222)"/><path d="M16600.97-18571.3h-1.94v-36.34h1.94zm0-62.15h-1.94v-40.15h1.94z" stroke="#3a414a" stroke-width=".05" fill="#3a414a"/><path d="M16600.97-18570.3h-1.94v-1.02h1.94z" fill="#3a414a"/><path stroke="#3a414a" stroke-width=".05" fill="#3a414a"/><path d="M16604.63-18674.6h-9.26l4.63-14.27z" fill="#3a414a"/><path d="M16605.98-18673.63h-11.96l5.98-18.4zm-9.27-1.94h6.6l-3.3-10.14z" stroke="#3a414a" stroke-width=".05" fill="#3a414a"/><use xlink:href="#f" transform="matrix(1,0,0,1,16569.645833333332,-18633.45261595089) translate(0 20.666666666666668)"/><path d="M16838.52-18807.1a6 6 0 0 1 6-6h148a6 6 0 0 1 6 6v108a6 6 0 0 1-6 6h-148a6 6 0 0 1-6-6z" stroke="#000" stroke-width="2" fill-opacity="0"/><use xlink:href="#g" transform="matrix(1,0,0,1,16850.515917603,-18801.101979166666) translate(13.082465277777771 53.22222222222222)"/><use xlink:href="#h" transform="matrix(1,0,0,1,16850.515917603,-18801.101979166666) translate(60.131076388888886 53.22222222222222)"/><path d="M16745.18-18752.13h-48.2v-1.95h48.2zm73.83 0h-45.67v-1.95h45.68z" stroke="#3a414a" stroke-width=".05" fill="#3a414a"/><path d="M16696-18745.6l-13-7.5 13-7.5z" fill="#3a414a"/><path d="M16696.97-18743.9l-15.92-9.2 15.92-9.2zm-12.02-9.2l10.06 5.8v-11.6z" stroke="#3a414a" stroke-width=".05" fill="#3a414a"/><path d="M16834.28-18753.1l-14.27 4.63v-9.27z" fill="#3a414a"/><path d="M16837.44-18753.1l-18.4 5.97v-11.95zm-16.45 3.3l10.13-3.3-10.14-3.3z" stroke="#3a414a" stroke-width=".05" fill="#3a414a"/><use xlink:href="#i" transform="matrix(1,0,0,1,16745.182437968168,-18763.857187499998) translate(0 17.22222222222222)"/><path d="M17518.52-18807.1a6 6 0 0 1 6-6h148a6 6 0 0 1 6 6v108a6 6 0 0 1-6 6h-148a6 6 0 0 1-6-6z" stroke="#000" stroke-width="2" fill-opacity="0"/><use xlink:href="#j" transform="matrix(1,0,0,1,17530.515917603,-18801.101979166666) translate(11.888888888888886 53.22222222222222)"/><use xlink:href="#k" transform="matrix(1,0,0,1,17530.515917603,-18801.101979166666) translate(58.963541666666664 53.22222222222222)"/><path d="M17025.58-18752.13h-10.07v-1.95h10.08zm30.22 0h-20.15v-1.95h20.15zm30.22 0h-20.15v-1.95h20.15zm30.22 0h-20.15v-1.95h20.14zm30.22 0h-20.15v-1.95h20.16zm15.22 0h-5.15v-1.95h5.15zm166.1 0h-20.15v-1.95h20.14zm30.2 0h-20.13v-1.95h20.14zm30.23 0h-20.14v-1.95h20.15zm30.23 0h-20.15v-1.95h20.15zm30.22 0h-20.15v-1.95h20.15zm30.22 0h-20.15v-1.95h20.15zm20.14 0h-10.06v-1.95h10.07zm-201.45 0h-19.22v-1.95h19.22z" stroke="#3a414a" stroke-width=".05" fill="#3a414a"/><path d="M17014.5-18745.6l-12.98-7.5 13-7.5z" fill="#3a414a"/><path d="M17015.48-18743.9l-15.9-9.2 15.9-9.2zm-12-9.2l10.05 5.8v-11.6z" stroke="#3a414a" stroke-width=".05" fill="#3a414a"/><path d="M17514.28-18753.1l-14.27 4.63v-9.27z" fill="#3a414a"/><path d="M17517.44-18753.1l-18.4 5.97v-11.95zm-16.45 3.3l10.13-3.3-10.14-3.3z" stroke="#3a414a" stroke-width=".05" fill="#3a414a"/><use xlink:href="#l" transform="matrix(1,0,0,1,17161.675845404934,-18763.857187499998) translate(0 17.22222222222222)"/><use xlink:href="#m" transform="matrix(1,0,0,1,17161.675845404934,-18763.857187499998) translate(47.07465277777778 17.22222222222222)"/><path d="M17798.52-18807.1a6 6 0 0 1 6-6h148a6 6 0 0 1 6 6v108a6 6 0 0 1-6 6h-148a6 6 0 0 1-6-6z" stroke="#000" stroke-width="2" fill-opacity="0"/><use xlink:href="#a" transform="matrix(1,0,0,1,17810.515917603,-18801.101979166666) translate(34.838541666666664 56.66666666666667)"/><path d="M17724.44-18752.13h-28.93v-1.95h28.94zm54.57 0h-26.4v-1.95h26.4z" stroke="#3a414a" stroke-width=".05" fill="#3a414a"/><path d="M17694.5-18745.6l-12.98-7.5 13-7.5z" fill="#3a414a"/><path d="M17695.48-18743.9l-15.9-9.2 15.9-9.2zm-12-9.2l10.05 5.8v-11.6z" stroke="#3a414a" stroke-width=".05" fill="#3a414a"/><path d="M17794.28-18753.1l-14.27 4.63v-9.27z" fill="#3a414a"/><path d="M17797.44-18753.1l-18.4 5.97v-11.95zm-16.45 3.3l10.13-3.3-10.14-3.3z" stroke="#3a414a" stroke-width=".05" fill="#3a414a"/><use xlink:href="#i" transform="matrix(1,0,0,1,17724.440396769667,-18763.857187499998) translate(0 17.22222222222222)"/><path d="M18459-18806.4a6 6 0 0 1 6-6h148a6 6 0 0 1 6 6v108a6 6 0 0 1-6 6h-148a6 6 0 0 1-6-6z" stroke="#000" stroke-width="2" fill-opacity="0"/><use xlink:href="#n" transform="matrix(1,0,0,1,18471.00005,-18800.40045378545) translate(10.517361111111114 53.22222222222222)"/><use xlink:href="#o" transform="matrix(1,0,0,1,18471.00005,-18800.40045378545) translate(68.26909722222223 53.22222222222222)"/><path d="M16600.97-18832.6h-1.94v-50.74h1.94zm0-76.56h-1.94v-38.14h1.94z" stroke="#3a414a" stroke-width=".05" fill="#3a414a"/><path d="M16600.97-18947.27h-1.94v-1.03h1.94z" fill="#3a414a"/><path stroke="#3a414a" stroke-width=".05" fill="#3a414a"/><path d="M16600-18817.34l-4.63-14.26h9.26z" fill="#3a414a"/><path d="M16600-18814.18l-5.98-18.4h11.96zm-3.3-16.45l3.3 10.14 3.3-10.13z" stroke="#3a414a" stroke-width=".05" fill="#3a414a"/><use xlink:href="#p" transform="matrix(1,0,0,1,16571.161458333332,-18909.15571214374) translate(0 20.666666666666668)"/><path d="M18305.1-18751.42h-19.2v-1.96h19.2zm28.8 0h-19.2v-1.96h19.2zm28.8 0h-19.2v-1.96h19.2zm28.8 0h-19.2v-1.96h19.2zm28.8 0h-19.2v-1.96h19.2zm19.2 0h-9.6v-1.96h9.6zm-163.2 0h-5v-1.96h5zm-291.1-.7h-9.7v-1.96h9.7zm29.12 0h-19.4v-1.96h19.4zm29.12 0h-19.4v-1.96h19.4zm29.1 0h-19.4v-1.96h19.4zm29.12 0h-19.4v-1.96h19.4zm29.1 0h-19.4v-1.96h19.4zm15.46 0h-5.74v-1.96h5.74z" stroke="#3a414a" stroke-width=".05" fill="#3a414a"/><path d="M17974.5-18745.6l-12.98-7.5 13-7.5z" fill="#3a414a"/><path d="M17975.48-18743.9l-15.9-9.2 15.9-9.2zm-12-9.2l10.05 5.8v-11.6z" stroke="#3a414a" stroke-width=".05" fill="#3a414a"/><path d="M18454.76-18752.4l-14.26 4.64v-9.28z" fill="#3a414a"/><path d="M18457.92-18752.4l-18.4 5.98v-11.96zm-16.45 3.3l10.14-3.3-10.13-3.3z" stroke="#3a414a" stroke-width=".05" fill="#3a414a"/><use xlink:href="#q" transform="matrix(1,0,0,1,18146.22326157928,-18763.50642480939) translate(0 17.22222222222222)"/><use xlink:href="#r" transform="matrix(1,0,0,1,18146.22326157928,-18763.50642480939) translate(4.210069444444445 17.22222222222222)"/><use xlink:href="#s" transform="matrix(1,0,0,1,18146.22326157928,-18763.50642480939) translate(55.251736111111114 17.22222222222222)"/><use xlink:href="#t" transform="matrix(1,0,0,1,18146.22326157928,-18763.50642480939) translate(71.52777777777779 17.22222222222222)"/><path d="M18760.48-18806.4a6 6 0 0 1 6-6h148a6 6 0 0 1 6 6v108a6 6 0 0 1-6 6h-148a6 6 0 0 1-6-6z" stroke="#000" stroke-width="2" fill-opacity="0"/><use xlink:href="#u" transform="matrix(1,0,0,1,18772.484132397,-18800.40045378545) translate(34.64496527777778 41.22222222222222)"/><use xlink:href="#v" transform="matrix(1,0,0,1,18772.484132397,-18800.40045378545) translate(30.33940972222222 67.03472222222223)"/><path d="M18760.48-19043.3a6 6 0 0 1 6-6h148a6 6 0 0 1 6 6v108a6 6 0 0 1-6 6h-148a6 6 0 0 1-6-6z" stroke="#000" stroke-width="2" fill-opacity="0"/><use xlink:href="#w" transform="matrix(1,0,0,1,18772.484132397,-19037.298474618783) translate(25.517361111111114 53.22222222222222)"/><use xlink:href="#x" transform="matrix(1,0,0,1,18772.484132397,-19037.298474618783) translate(74.796875 53.22222222222222)"/><path d="M19040.48-18806.4a6 6 0 0 1 6-6h148a6 6 0 0 1 6 6v108a6 6 0 0 1-6 6h-148a6 6 0 0 1-6-6z" stroke="#000" stroke-width="2" fill-opacity="0"/><use xlink:href="#y" transform="matrix(1,0,0,1,19052.484132397,-18800.40045378545) translate(26.64583333333333 53.22222222222222)"/><path d="M17666.33-18860.2a6 6 0 0 1 6-6h152.38a6 6 0 0 1 6 6v24.9a6 6 0 0 1-6 6h-152.38a6 6 0 0 1-6-6z" fill="none"/><use xlink:href="#z" transform="matrix(1,0,0,1,17671.324502672443,-18861.196495452117) translate(0.31358506944444287 21.58376736111111)"/><use xlink:href="#A" transform="matrix(1,0,0,1,17671.324502672443,-18861.196495452117) translate(98.056640625 21.58376736111111)"/><path d="M16652.67-19144a6 6 0 0 1 6-6h134.65a6 6 0 0 1 6 6v24.9a6 6 0 0 1-6 6h-134.65a6 6 0 0 1-6-6z" fill="none"/><use xlink:href="#B" transform="matrix(1,0,0,1,16657.671440972223,-19145) translate(0.17860243055555713 21.58376736111111)"/><use xlink:href="#A" transform="matrix(1,0,0,1,16657.671440972223,-19145) translate(80.19162326388889 21.58376736111111)"/><path d="M17740-20574a6 6 0 0 1 6-6h148a6 6 0 0 1 6 6v108a6 6 0 0 1-6 6h-148a6 6 0 0 1-6-6z" stroke="#000" stroke-width="2" fill-opacity="0"/><use xlink:href="#C" transform="matrix(1,0,0,1,17752,-20568) translate(32.576822916666664 37.833333333333336)"/><use xlink:href="#D" transform="matrix(1,0,0,1,17752,-20568) translate(39.022135416666664 76.55208333333334)"/><path d="M18560-20574a6 6 0 0 1 6-6h148a6 6 0 0 1 6 6v108a6 6 0 0 1-6 6h-148a6 6 0 0 1-6-6z" stroke="#000" stroke-width="2" fill-opacity="0"/><use xlink:href="#E" transform="matrix(1,0,0,1,18572,-20568) translate(42.47265625 58.833333333333336)"/><path d="M17902-20520h638.5" stroke="#3a414a" stroke-width="2" fill="none"/><path d="M17902.03-20519.03h-1.03v-1.94h1.03z" stroke="#3a414a" stroke-width=".05" fill="#3a414a"/><path d="M18555.76-20520l-14.26 4.63v-9.26z" stroke="#3a414a" stroke-width="2" fill="#3a414a"/><path d="M17700-20109a6 6 0 0 1 6-6h148a6 6 0 0 1 6 6v108a6 6 0 0 1-6 6h-148a6 6 0 0 1-6-6z" stroke="#000" stroke-width="2" fill-opacity="0"/><use xlink:href="#F" transform="matrix(1,0,0,1,17712,-20103) translate(13.104166666666664 37.833333333333336)"/><use xlink:href="#G" transform="matrix(1,0,0,1,17712,-20103) translate(34.022135416666664 76.55208333333334)"/><path d="M18520-20109a6 6 0 0 1 6-6h148a6 6 0 0 1 6 6v108a6 6 0 0 1-6 6h-148a6 6 0 0 1-6-6z" stroke="#000" stroke-width="2" fill-opacity="0"/><use xlink:href="#H" transform="matrix(1,0,0,1,18532,-20103) translate(26.41796875 58.833333333333336)"/><path d="M18126.07-20054.03H17862v-1.94h264.07zm374.43 0h-246.57v-1.94h246.57z" stroke="#3a414a" stroke-width=".05" fill="#3a414a"/><path d="M17862.03-20054.03h-1.03v-1.94h1.03z" fill="#3a414a"/><path stroke="#3a414a" stroke-width=".05" fill="#3a414a"/><path d="M18515.76-20055l-14.26 4.63v-9.26z" fill="#3a414a"/><path d="M18518.92-20055l-18.4 5.98v-11.96zm-16.45 3.3l10.14-3.3-10.13-3.3z" stroke="#3a414a" stroke-width=".05" fill="#3a414a"/><use xlink:href="#I" transform="matrix(1,0,0,1,18126.067708333332,-20071.1328125) translate(0 25.833333333333336)"/><path d="M18780-20109a6 6 0 0 1 6-6h148a6 6 0 0 1 6 6v108a6 6 0 0 1-6 6h-148a6 6 0 0 1-6-6z" stroke="#000" stroke-width="2" fill-opacity="0"/><use xlink:href="#J" transform="matrix(1,0,0,1,18792,-20103) translate(11.802083333333336 58.833333333333336)"/><path d="M18520-20299a6 6 0 0 1 6-6h148a6 6 0 0 1 6 6v108a6 6 0 0 1-6 6h-148a6 6 0 0 1-6-6z" stroke="#000" stroke-width="2" fill-opacity="0"/><use xlink:href="#K" transform="matrix(1,0,0,1,18532,-20293) translate(7.954427083333336 58.833333333333336)"/><path d="M18600-20129.74v-4.33m0-4.32v-8.64m0-4.33v-8.65m0-4.33v-4.33" stroke="#3a414a" stroke-width=".5" fill="none"/><path d="M18600-20116.5l-7.5-13h15zM18600-20183.2l4.63 14.28h-9.26z" stroke="#3a414a" stroke-width=".5" fill="#3a414a"/><path d="M18694.74-20055h4.6m4.6 0h9.18m4.6 0h9.2m4.6 0h9.18m4.6 0h9.18m4.6 0h4.6" stroke="#3a414a" stroke-width=".5" fill="none"/><path d="M18681.5-20055l13-7.5v15zM18778.2-20055l-14.28 4.63v-9.26z" stroke="#3a414a" stroke-width=".5" fill="#3a414a"/><path d="M17460-20109a6 6 0 0 1 6-6h148a6 6 0 0 1 6 6v108a6 6 0 0 1-6 6h-148a6 6 0 0 1-6-6z" stroke="#000" stroke-width="2" fill-opacity="0"/><use xlink:href="#L" transform="matrix(1,0,0,1,17472,-20103) translate(16.704427083333336 58.833333333333336)"/><path d="M17621.25-20055h62.42" stroke="#3a414a" stroke-width=".5" fill="none"/><path d="M17621.26-20054.78h-.26v-.44h.26z" stroke="#3a414a" stroke-width=".05" fill="#3a414a"/><path d="M17698.2-20055l-14.28 4.63v-9.26z" stroke="#3a414a" stroke-width=".5" fill="#3a414a"/><path d="M17760-19604a6 6 0 0 1 6-6h148a6 6 0 0 1 6 6v108a6 6 0 0 1-6 6h-148a6 6 0 0 1-6-6z" stroke="#000" stroke-width="2" fill-opacity="0"/><use xlink:href="#F" transform="matrix(1,0,0,1,17772,-19598) translate(13.104166666666664 37.833333333333336)"/><use xlink:href="#M" transform="matrix(1,0,0,1,17772,-19598) translate(34.022135416666664 76.55208333333334)"/><path d="M18580-19604a6 6 0 0 1 6-6h148a6 6 0 0 1 6 6v108a6 6 0 0 1-6 6h-148a6 6 0 0 1-6-6z" stroke="#000" stroke-width="2" fill-opacity="0"/><use xlink:href="#H" transform="matrix(1,0,0,1,18592,-19598) translate(26.41796875 58.833333333333336)"/><path d="M18186.07-19549.03H17937v-1.94h249.07zm374.43 0h-246.57v-1.94h246.57z" stroke="#3a414a" stroke-width=".05" fill="#3a414a"/><path d="M17936-19542.5l-13-7.5 13-7.5z" fill="#3a414a"/><path d="M17936.97-19540.8l-15.92-9.2 15.92-9.2zm-12.02-9.2l10.06 5.8v-11.6z" stroke="#3a414a" stroke-width=".05" fill="#3a414a"/><path d="M18575.76-19550l-14.26 4.63v-9.26z" fill="#3a414a"/><path d="M18578.92-19550l-18.4 5.98v-11.96zm-16.45 3.3l10.14-3.3-10.13-3.3z" stroke="#3a414a" stroke-width=".05" fill="#3a414a"/><use xlink:href="#I" transform="matrix(1,0,0,1,18186.067708333332,-19566.1328125) translate(0 25.833333333333336)"/><path d="M18840-19604a6 6 0 0 1 6-6h148a6 6 0 0 1 6 6v108a6 6 0 0 1-6 6h-148a6 6 0 0 1-6-6z" stroke="#000" stroke-width="2" fill-opacity="0"/><use xlink:href="#J" transform="matrix(1,0,0,1,18852,-19598) translate(11.802083333333336 58.833333333333336)"/><path d="M18580-19794a6 6 0 0 1 6-6h148a6 6 0 0 1 6 6v108a6 6 0 0 1-6 6h-148a6 6 0 0 1-6-6z" stroke="#000" stroke-width="2" fill-opacity="0"/><use xlink:href="#K" transform="matrix(1,0,0,1,18592,-19788) translate(7.954427083333336 58.833333333333336)"/><path d="M18660-19627v-33.5" stroke="#3a414a" stroke-width="2" fill="none"/><path d="M18660-19613l-7.5-13h15zM18660-19675.76l4.63 14.26h-9.26z" stroke="#3a414a" stroke-width="2" fill="#3a414a"/><path d="M18757-19550h63.5" stroke="#3a414a" stroke-width="2" fill="none"/><path d="M18743-19550l13-7.5v15zM18835.76-19550l-14.26 4.63v-9.26z" stroke="#3a414a" stroke-width="2" fill="#3a414a"/><path d="M17240-19604a6 6 0 0 1 6-6h148a6 6 0 0 1 6 6v108a6 6 0 0 1-6 6h-148a6 6 0 0 1-6-6z" stroke="#000" stroke-width="2" fill-opacity="0"/><use xlink:href="#L" transform="matrix(1,0,0,1,17252,-19598) translate(16.704427083333336 58.833333333333336)"/><path d="M17500-19604a6 6 0 0 1 6-6h148a6 6 0 0 1 6 6v108a6 6 0 0 1-6 6h-148a6 6 0 0 1-6-6z" stroke="#000" stroke-width="2" fill-opacity="0"/><use xlink:href="#N" transform="matrix(1,0,0,1,17512,-19598) translate(23.7421875 37.833333333333336)"/><use xlink:href="#G" transform="matrix(1,0,0,1,17512,-19598) translate(34.022135416666664 76.55208333333334)"/><path d="M17677-19550h63.5" stroke="#3a414a" stroke-width="2" fill="none"/><path d="M17663-19550l13-7.5v15zM17755.76-19550l-14.26 4.63v-9.26z" stroke="#3a414a" stroke-width="2" fill="#3a414a"/><path d="M17401.25-19550h82.42" stroke="#3a414a" stroke-width=".5" fill="none"/><path d="M17401.26-19549.78h-.26v-.44h.26z" stroke="#3a414a" stroke-width=".05" fill="#3a414a"/><path d="M17498.2-19550l-14.28 4.63v-9.26z" stroke="#3a414a" stroke-width=".5" fill="#3a414a"/><path d="M18647.66-18751.42H18636v-1.96h11.66zm22.17 0h-10.5v-1.96h10.5zm71.15 0h-11.66v-1.96h11.66zm-23.33 0h-8v-1.96h8z" stroke="#3a414a" stroke-width=".05" fill="#3a414a"/><path d="M18635-18744.9l-13-7.5 13-7.5z" fill="#3a414a"/><path d="M18635.97-18743.2l-15.92-9.2 15.92-9.2zm-12.02-9.2l10.06 5.8v-11.6z" stroke="#3a414a" stroke-width=".05" fill="#3a414a"/><path d="M18756.25-18752.4l-14.27 4.64v-9.28z" fill="#3a414a"/><path d="M18759.4-18752.4l-18.4 5.98v-11.96zm-16.44 3.3l10.13-3.3-10.14-3.3z" stroke="#3a414a" stroke-width=".05" fill="#3a414a"/><use xlink:href="#O" transform="matrix(1,0,0,1,18669.828896754054,-18763.15566211878) translate(0 17.22222222222222)"/><path d="M18840.7-18827.14h-.44v-38.06h.45zm0-63.87h-.44v-21.97h.45z" stroke="#3a414a" stroke-width=".05" fill="#3a414a"/><path d="M18840.48-18813.9l-7.5-13h15z" fill="#3a414a"/><path d="M18840.48-18813.45l-7.9-13.67h15.8zm-7.1-13.22l7.1 12.32 7.1-12.32z" stroke="#3a414a" stroke-width=".05" fill="#3a414a"/><path d="M18845.12-18913.22h-9.27l4.63-14.27z" fill="#3a414a"/><path d="M18845.43-18913h-9.9l4.95-15.22zm-9.27-.45h8.65l-4.32-13.3z" stroke="#3a414a" stroke-width=".05" fill="#3a414a"/><g><use xlink:href="#P" transform="matrix(1,0,0,1,18750.75496573033,-18891.007629710995) translate(0 20.666666666666668)"/></g><path d="M18937.47-18752.4h83.5" stroke="#3a414a" stroke-width="2" fill="none"/><path d="M18923.48-18752.4l13-7.5v15zM19036.25-18752.4l-14.27 4.64v-9.28z" stroke="#3a414a" stroke-width="2" fill="#3a414a"/><path d="M18550.48-19834a6 6 0 0 1 6-6h478a6 6 0 0 1 6 6v388a6 6 0 0 1-6 6h-478a6 6 0 0 1-6-6z" fill-opacity="0"/><path d="M18576.4-19840h19.92m9.96 0h19.9m9.97 0h19.92m9.96 0h19.9m9.97 0h19.92m9.96 0h19.9m9.97 0h19.92m9.96 0h19.9m9.97 0h19.92m9.96 0h19.9m9.97 0h19.92m9.96 0h19.9m9.97 0h19.92m9.96 0h19.9m9.97 0h19.92m9.96 0h9.95a6 6 0 0 1 6 6v9.95m0 9.95v19.9m0 9.94v19.9m0 9.95v19.9m0 9.94v19.9m0 9.94v19.9m0 9.95v19.9m0 9.94v19.9m0 9.95v19.9m0 9.95v19.9m0 9.94v19.9m0 9.96v19.9m0 9.95v19.9m0 9.95v9.95a6 6 0 0 1-6 6h-9.95m-9.96 0h-19.92m-9.96 0h-19.92m-9.96 0h-19.92m-9.96 0h-19.9m-9.97 0h-19.92m-9.96 0h-19.92m-9.96 0h-19.92m-9.96 0h-19.9m-9.97 0h-19.92m-9.96 0h-19.92m-9.96 0h-19.92m-9.96 0h-19.9m-9.97 0h-19.92m-9.96 0h-19.92m-9.96 0h-19.92m-9.96 0h-9.96a6 6 0 0 1-6-6v-9.95m0-9.95v-19.9m0-9.94v-19.9m0-9.95v-19.9m0-9.94v-19.9m0-9.94v-19.9m0-9.95v-19.9m0-9.94v-19.9m0-9.95v-19.9m0-9.95v-19.9m0-9.94v-19.9m0-9.96v-19.9m0-9.95v-19.9m0-9.95v-9.95a6 6 0 0 1 6-6h9.96" stroke="#000" stroke-width="2" fill="none"/><path d="M17200-19654a6 6 0 0 1 6-6h746.52a6 6 0 0 1 6 6v208a6 6 0 0 1-6 6H17206a6 6 0 0 1-6-6z" fill-opacity="0"/><path d="M17225.9-19660h19.9m9.97 0h19.9m9.96 0h19.9m9.96 0h19.9m9.95 0h19.9m9.96 0h19.92m9.95 0h19.9m9.96 0h19.9m9.96 0h19.9m9.95 0h19.9m9.96 0h19.92m9.95 0h19.9m9.97 0h19.9m9.96 0h19.9m9.96 0h19.9m9.96 0h19.9m9.96 0h19.9m9.96 0h19.9m9.96 0h19.9m9.96 0h19.9m9.96 0h19.9m9.96 0h19.9m9.96 0h19.9m9.96 0h19.9m9.96 0h9.96a6 6 0 0 1 6 6v9.9m0 9.9v19.82m0 9.9v19.8m0 9.92v19.8m0 9.9v19.82m0 9.9v19.82m0 9.9v19.8m0 9.92v9.9a6 6 0 0 1-6 6h-9.96m-9.95 0h-19.9m-9.95 0h-19.9m-9.96 0h-19.92m-9.95 0h-19.9m-9.96 0h-19.9m-9.96 0h-19.9m-9.96 0h-19.9m-9.96 0h-19.9m-9.96 0h-19.9m-9.96 0h-19.9m-9.96 0h-19.9m-9.96 0h-19.9m-9.96 0h-19.9m-9.96 0h-19.9m-9.96 0h-19.9m-9.96 0h-19.9m-9.96 0h-19.9m-9.96 0h-19.9m-9.96 0h-19.9m-9.96 0h-19.9m-9.96 0h-19.9m-9.97 0h-19.9m-9.96 0h-19.9m-9.96 0h-19.9m-9.95 0h-9.95a6 6 0 0 1-6-6v-9.9m0-9.9v-19.82m0-9.9v-19.8m0-9.92v-19.8m0-9.9v-19.82m0-9.9v-19.82m0-9.9v-19.8m0-9.92v-9.9a6 6 0 0 1 6-6h9.95" stroke="#000" stroke-width="2" fill="none"/><path d="M18480-20334a6 6 0 0 1 6-6h478a6 6 0 0 1 6 6v388a6 6 0 0 1-6 6h-478a6 6 0 0 1-6-6z" fill-opacity="0"/><path d="M18505.92-20340h19.9m9.97 0h19.9m9.97 0h19.9m9.97 0h19.92m9.96 0h19.9m9.97 0h19.9m9.97 0h19.9m9.97 0h19.92m9.96 0h19.9m9.97 0h19.9m9.97 0h19.9m9.97 0h19.92m9.96 0h19.9m9.97 0h19.9m9.97 0h19.9m9.97 0h9.96a6 6 0 0 1 6 6v9.95m0 9.95v19.9m0 9.94v19.9m0 9.95v19.9m0 9.94v19.9m0 9.94v19.9m0 9.95v19.9m0 9.94v19.9m0 9.95v19.9m0 9.95v19.9m0 9.94v19.9m0 9.96v19.9m0 9.95v19.9m0 9.95v9.95a6 6 0 0 1-6 6h-9.96m-9.96 0h-19.9m-9.97 0h-19.9m-9.97 0h-19.9m-9.97 0h-19.92m-9.96 0h-19.9m-9.97 0h-19.9m-9.97 0h-19.9m-9.97 0h-19.92m-9.96 0h-19.9m-9.97 0h-19.9m-9.97 0h-19.9m-9.97 0h-19.92m-9.96 0h-19.9m-9.97 0h-19.9m-9.97 0h-19.9m-9.97 0h-9.96a6 6 0 0 1-6-6v-9.95m0-9.95v-19.9m0-9.94v-19.9m0-9.95v-19.9m0-9.94v-19.9m0-9.94v-19.9m0-9.95v-19.9m0-9.94v-19.9m0-9.95v-19.9m0-9.95v-19.9m0-9.94v-19.9m0-9.96v-19.9m0-9.95v-19.9m0-9.95v-9.95a6 6 0 0 1 6-6h9.96" stroke="#000" stroke-width="2" fill="none"/><path d="M17440-20154a6 6 0 0 1 6-6h478a6 6 0 0 1 6 6v188a6 6 0 0 1-6 6h-478a6 6 0 0 1-6-6z" fill-opacity="0"/><path d="M17465.92-20160h19.9m9.97 0h19.9m9.97 0h19.9m9.97 0h19.92m9.96 0h19.9m9.97 0h19.9m9.97 0h19.9m9.97 0h19.92m9.96 0h19.9m9.97 0h19.9m9.97 0h19.9m9.97 0h19.92m9.96 0h19.9m9.97 0h19.9m9.97 0h19.9m9.97 0h9.96a6 6 0 0 1 6 6v10.44m0 10.45v20.88m0 10.44v20.9m0 10.44v20.88m0 10.45v20.88m0 10.44v20.9m0 10.44v10.44a6 6 0 0 1-6 6h-9.96m-9.96 0h-19.9m-9.97 0h-19.9m-9.97 0h-19.9m-9.97 0h-19.92m-9.96 0h-19.9m-9.97 0h-19.9m-9.97 0h-19.9m-9.97 0h-19.92m-9.96 0h-19.9m-9.97 0h-19.9m-9.97 0h-19.9m-9.97 0h-19.92m-9.96 0h-19.9m-9.97 0h-19.9m-9.97 0h-19.9m-9.97 0h-9.96a6 6 0 0 1-6-6v-10.44m0-10.45v-20.88m0-10.44v-20.9m0-10.44v-20.88m0-10.45v-20.88m0-10.44v-20.9m0-10.44v-10.44a6 6 0 0 1 6-6h9.96" stroke="#000" stroke-width="2" fill="none"/><defs><path d="M180 0v-1490h908v168H370v486h669v168H370v500h727V0H180" id="Q"/><path d="M657 26c-323 0-524-166-541-416h195c15 169 171 246 346 246 202 0 356-106 356-265 5-203-294-238-475-293-239-73-380-191-380-389 0-252 224-419 512-419 294 0 499 171 508 396H992c-17-145-151-228-328-228-193 0-321 102-321 242 0 156 175 211 284 241l149 41c160 44 422 134 422 412 0 244-197 432-541 432" id="R"/><path d="M180 0v-1490h510c348 0 508 209 508 474 0 266-160 477-507 477H370V0H180zm190-706h312c236 0 327-133 327-310 0-176-91-307-329-307H370v617" id="S"/><path d="M635 20c-292 0-500-160-510-396h192c11 142 145 229 315 229 187 0 323-105 323-260 0-161-125-274-346-274H488v-165h121c174 0 294-100 294-254 0-148-104-245-266-245-152 0-291 85-297 230H157c8-234 222-395 484-395 278 0 448 188 448 400 0 168-95 291-247 336v12c190 31 301 169 301 357 0 244-216 425-508 425" id="T"/><path d="M154 0v-137l495-537c165-179 249-281 249-418 0-156-121-253-280-253-170 0-278 110-278 278H158c0-264 200-443 465-443 266 0 455 183 455 416 0 161-73 288-336 568L416-179v12h687V0H154" id="U"/><g id="a"><use transform="matrix(0.010416666666666668,0,0,0.010416666666666668,0,0)" xlink:href="#Q"/><use transform="matrix(0.010416666666666668,0,0,0.010416666666666668,12.822916666666668,0)" xlink:href="#R"/><use transform="matrix(0.010416666666666668,0,0,0.010416666666666668,26.510416666666668,0)" xlink:href="#S"/><use transform="matrix(0.010416666666666668,0,0,0.010416666666666668,40.13541666666667,0)" xlink:href="#T"/><use transform="matrix(0.010416666666666668,0,0,0.010416666666666668,53.31250000000001,0)" xlink:href="#U"/></g><path d="M750 21c-371 0-615-218-615-544v-967h305v942c0 174 123 299 310 299s309-125 309-299v-942h306v967c0 326-247 544-615 544" id="V"/><path d="M428-1490V0H128v-1490h300" id="W"/><path d="M683-1118v229H474v562c0 71 29 104 102 104 23 0 73-7 95-13l43 225C647 9 580 16 520 16 296 16 174-96 174-301v-588H20v-229h154v-266h300v266h209" id="X"/><path d="M128 0v-1118h290v195h12c54-169 184-238 367-200v268c-27-8-86-15-130-15-138 0-239 95-239 234V0H128" id="Y"/><path d="M440 22C227 22 68-92 68-313c0-250 202-322 422-343 195-21 271-24 271-105 0-95-63-149-175-149-116 0-187 57-211 129l-275-46c57-194 237-305 487-305 240 0 474 108 474 379V0H777v-155h-10C713-51 605 22 440 22zm85-211c140 0 238-93 238-211v-121c-37 26-156 42-222 51-111 16-185 59-185 149 0 87 70 132 169 132" id="Z"/><path d="M572 22C302 22 117-98 78-306l279-48c29 105 101 156 224 156 114 0 185-48 185-115 0-118-228-130-337-155-215-49-322-150-322-317 0-215 187-347 470-347 265 0 424 116 466 298l-266 47c-24-76-87-130-196-130-98 0-174 46-174 113 0 56 38 95 144 117l201 40c216 44 320 143 320 302 0 220-207 367-500 367" id="aa"/><path d="M628 22C291 22 81-210 81-554c0-346 210-578 547-578 336 0 547 232 547 578 0 344-211 576-547 576zm0-236c160 0 242-146 242-341 0-197-82-341-242-341S387-753 387-555c0 195 81 341 241 341" id="ab"/><path d="M428-647V0H128v-1118h283l4 231c63-156 176-245 348-245 232 0 384 159 384 421V0H847v-659c0-139-76-222-202-222-128 0-217 86-217 234" id="ac"/><path d="M128 0v-1118h300V0H128zm150-1264c-91 0-165-68-165-154 0-85 74-154 165-154 90 0 165 69 165 154 0 86-75 154-165 154" id="ad"/><path d="M628 22C291 22 81-210 81-554c0-346 210-578 547-578 265 0 455 142 497 372l-279 52c-25-116-99-188-215-188-160 0-244 139-244 341 0 200 84 341 244 341 116 0 193-74 217-195l279 51C1085-123 896 22 628 22" id="ae"/><g id="b"><use transform="matrix(0.008680555555555556,0,0,0.008680555555555556,0,0)" xlink:href="#V"/><use transform="matrix(0.008680555555555556,0,0,0.008680555555555556,13.012152777777779,0)" xlink:href="#W"/><use transform="matrix(0.008680555555555556,0,0,0.008680555555555556,18.09027777777778,0)" xlink:href="#X"/><use transform="matrix(0.008680555555555556,0,0,0.008680555555555556,24.600694444444446,0)" xlink:href="#Y"/><use transform="matrix(0.008680555555555556,0,0,0.008680555555555556,31.59722222222222,0)" xlink:href="#Z"/><use transform="matrix(0.008680555555555556,0,0,0.008680555555555556,41.91840277777778,0)" xlink:href="#aa"/><use transform="matrix(0.008680555555555556,0,0,0.008680555555555556,51.875,0)" xlink:href="#ab"/><use transform="matrix(0.008680555555555556,0,0,0.008680555555555556,62.77777777777778,0)" xlink:href="#ac"/><use transform="matrix(0.008680555555555556,0,0,0.008680555555555556,73.84548611111111,0)" xlink:href="#ad"/><use transform="matrix(0.008680555555555556,0,0,0.008680555555555556,78.66319444444444,0)" xlink:href="#ae"/></g><path d="M681 22C323 22 94-145 85-462h297c10 151 131 226 296 226 163 0 271-77 271-190 0-102-95-149-257-189l-164-41c-252-61-403-188-403-405 0-269 236-449 560-449 330 0 546 183 551 445H941c-11-119-106-188-259-188-156 0-244 72-244 172-3 156 226 185 373 221 250 61 445 186 445 436 0 271-213 446-575 446" id="af"/><path d="M633 22C291 22 81-200 81-553c0-345 210-579 537-579 292 0 525 185 525 567v84H378c7 183 109 277 260 277 105 0 184-46 216-132l272 51C1071-99 893 22 633 22zM380-669h474c-15-146-94-237-233-237-143 0-229 99-241 237" id="ag"/><g id="c"><use transform="matrix(0.008680555555555556,0,0,0.008680555555555556,0,0)" xlink:href="#af"/><use transform="matrix(0.008680555555555556,0,0,0.008680555555555556,11.640625,0)" xlink:href="#ag"/><use transform="matrix(0.008680555555555556,0,0,0.008680555555555556,22.23090277777778,0)" xlink:href="#ac"/><use transform="matrix(0.008680555555555556,0,0,0.008680555555555556,33.298611111111114,0)" xlink:href="#aa"/><use transform="matrix(0.008680555555555556,0,0,0.008680555555555556,43.255208333333336,0)" xlink:href="#ab"/><use transform="matrix(0.008680555555555556,0,0,0.008680555555555556,54.157986111111114,0)" xlink:href="#Y"/></g><path d="M75-1237v-253h1217v253H837V0H531v-1237H75" id="ah"/><path d="M128 0v-1118h278l12 217c60-163 185-234 319-234 143 0 236 81 288 251 63-172 205-251 359-251 205 0 357 138 357 381V0h-301v-697c0-126-76-187-177-187-114 0-184 79-184 196V0H789v-705c0-109-72-179-174-179-106 0-187 74-187 208V0H128" id="ai"/><path d="M128 418v-1536h295v188h14c41-89 129-202 319-202 248 0 453 193 453 575 0 372-197 576-455 576-183 0-275-108-317-198h-9v597H128zm534-640c156 0 240-139 240-336 0-196-83-334-240-334-154 0-241 131-241 334 0 202 88 336 241 336" id="aj"/><g id="d"><use transform="matrix(0.008680555555555556,0,0,0.008680555555555556,0,0)" xlink:href="#ah"/><use transform="matrix(0.008680555555555556,0,0,0.008680555555555556,10.477430555555555,0)" xlink:href="#ag"/><use transform="matrix(0.008680555555555556,0,0,0.008680555555555556,21.067708333333336,0)" xlink:href="#ai"/><use transform="matrix(0.008680555555555556,0,0,0.008680555555555556,37.29166666666667,0)" xlink:href="#aj"/></g><g id="e"><use transform="matrix(0.008680555555555556,0,0,0.008680555555555556,0,0)" xlink:href="#aa"/><use transform="matrix(0.008680555555555556,0,0,0.008680555555555556,9.956597222222223,0)" xlink:href="#ag"/><use transform="matrix(0.008680555555555556,0,0,0.008680555555555556,20.546875,0)" xlink:href="#ac"/><use transform="matrix(0.008680555555555556,0,0,0.008680555555555556,31.614583333333336,0)" xlink:href="#aa"/><use transform="matrix(0.008680555555555556,0,0,0.008680555555555556,41.57118055555556,0)" xlink:href="#ab"/><use transform="matrix(0.008680555555555556,0,0,0.008680555555555556,52.473958333333336,0)" xlink:href="#Y"/></g><path d="M577 24c-279 0-473-224-473-580 0-354 195-576 474-576 218 0 287 134 324 193h14v-551h180V0H922v-173h-20C865-111 790 24 577 24zm27-161c203 0 314-172 314-421 0-247-108-413-314-413-212 0-317 181-317 413 0 235 108 421 317 421" id="ak"/><path d="M158 0v-1118h180V0H158zm91-1301c-68 0-125-53-125-119s57-119 125-119c69 0 126 53 126 119s-57 119-126 119" id="al"/><path d="M611 442c-248 0-391-105-460-228l146-94c47 65 117 165 314 165 178 0 307-82 307-266v-224h-17C863-141 792-18 576-18c-268 0-472-195-472-546 0-346 197-568 476-568 216 0 288 133 326 193h17v-179h175V29c0 289-215 413-487 413zm-5-620c203 0 314-146 314-390 0-237-108-403-314-403-213 0-319 180-319 403 0 230 109 390 319 390" id="am"/><path d="M598-1118v154H368v674c0 100 37 144 132 144 23 0 62-6 92-12L629-6c-37 13-88 20-134 20-193 0-307-107-307-290v-688H20v-154h168v-266h180v266h230" id="an"/><path d="M471 26C259 26 90-98 90-318c0-256 228-303 435-329 202-27 287-16 287-108 0-139-79-219-234-219-161 0-248 86-283 164l-173-57c86-203 278-265 451-265 150 0 419 46 419 395V0H815v-152h-12C765-73 660 26 471 26zm31-159c199 0 310-134 310-271v-155c-30 35-226 55-295 64-131 17-246 59-246 186 0 116 97 176 231 176" id="ao"/><path d="M338-1490V0H158v-1490h180" id="ap"/><g id="f"><use transform="matrix(0.010416666666666668,0,0,0.010416666666666668,0,0)" xlink:href="#ak"/><use transform="matrix(0.010416666666666668,0,0,0.010416666666666668,13.062500000000002,0)" xlink:href="#al"/><use transform="matrix(0.010416666666666668,0,0,0.010416666666666668,18.229166666666668,0)" xlink:href="#am"/><use transform="matrix(0.010416666666666668,0,0,0.010416666666666668,31.3125,0)" xlink:href="#al"/><use transform="matrix(0.010416666666666668,0,0,0.010416666666666668,36.479166666666664,0)" xlink:href="#an"/><use transform="matrix(0.010416666666666668,0,0,0.010416666666666668,43.56249999999999,0)" xlink:href="#ao"/><use transform="matrix(0.010416666666666668,0,0,0.010416666666666668,55.54166666666667,0)" xlink:href="#ap"/></g><path d="M180 0v-1490h190v1322h690V0H180" id="aq"/><path d="M613 24c-304 0-509-231-509-576 0-350 205-580 509-580 305 0 511 230 511 580 0 345-206 576-511 576zm0-161c226 0 329-195 329-415 0-222-103-419-329-419-223 0-326 196-326 419 0 220 103 415 326 415" id="ar"/><path d="M180 0v-1490h510c348 0 508 194 508 460 0 198-88 351-276 417L1256 0h-220L726-579c-117 2-238 0-356 1V0H180zm190-747h312c235 0 327-108 327-283 0-177-92-293-329-293H370v576" id="as"/><g id="g"><use transform="matrix(0.008680555555555556,0,0,0.008680555555555556,0,0)" xlink:href="#aq"/><use transform="matrix(0.008680555555555556,0,0,0.008680555555555556,10.052083333333334,0)" xlink:href="#ar"/><use transform="matrix(0.008680555555555556,0,0,0.008680555555555556,20.711805555555557,0)" xlink:href="#as"/><use transform="matrix(0.008680555555555556,0,0,0.008680555555555556,32.06597222222222,0)" xlink:href="#ao"/></g><path d="M180 0v-1490h270l367 940c28 72 75 218 110 339 35-117 81-264 110-339l362-940h271V0h-187c2-448-5-837 7-1287-157 497-311 829-483 1287H842C666-458 514-784 354-1284c12 438 5 843 7 1284H180" id="at"/><path d="M537 14c-226 0-379-139-379-422v-710h180v695c0 172 97 275 253 275 160 0 281-109 281-300v-670h181V0H879v-209C806-46 684 14 537 14" id="au"/><path d="M628 24c-324 0-524-230-524-574 0-343 198-582 503-582 237 0 487 146 487 559v75H286c9 234 145 362 343 362 132 0 231-58 273-172l174 48C1024-91 857 24 628 24zM287-650h624c-17-190-120-322-304-322-192 0-309 151-320 322" id="av"/><g id="h"><use transform="matrix(0.008680555555555556,0,0,0.008680555555555556,0,0)" xlink:href="#at"/><use transform="matrix(0.008680555555555556,0,0,0.008680555555555556,16.05902777777778,0)" xlink:href="#ar"/><use transform="matrix(0.008680555555555556,0,0,0.008680555555555556,26.71875,0)" xlink:href="#ak"/><use transform="matrix(0.008680555555555556,0,0,0.008680555555555556,37.60416666666667,0)" xlink:href="#au"/><use transform="matrix(0.008680555555555556,0,0,0.008680555555555556,48.11631944444445,0)" xlink:href="#ap"/><use transform="matrix(0.008680555555555556,0,0,0.008680555555555556,52.42187500000001,0)" xlink:href="#av"/></g><path fill="#333" d="M681 22C323 22 94-145 85-462h297c10 151 131 226 296 226 163 0 271-77 271-190 0-102-95-149-257-189l-164-41c-252-61-403-188-403-405 0-269 236-449 560-449 330 0 546 183 551 445H941c-11-119-106-188-259-188-156 0-244 72-244 172-3 156 226 185 373 221 250 61 445 186 445 436 0 271-213 446-575 446" id="aw"/><path fill="#333" d="M135 0v-1490h581c339 0 533 210 533 503 0 295-197 500-540 500H440V0H135zm305-733h220c186 0 274-104 274-254s-88-251-275-251H440v505" id="ax"/><path fill="#333" d="M440-1490V0H135v-1490h305" id="ay"/><g id="i"><use transform="matrix(0.008680555555555556,0,0,0.008680555555555556,0,0)" xlink:href="#aw"/><use transform="matrix(0.008680555555555556,0,0,0.008680555555555556,11.640625,0)" xlink:href="#ax"/><use transform="matrix(0.008680555555555556,0,0,0.008680555555555556,23.159722222222225,0)" xlink:href="#ay"/></g><path d="M135 0v-1490h305v1237h643V0H135" id="az"/><path d="M135 0v-1490h581c339 0 533 192 533 485 0 204-94 351-264 424L1302 0H964L680-532H440V0H135zm305-779h220c186 0 274-77 274-226 0-150-88-233-275-233H440v459" id="aA"/><g id="j"><use transform="matrix(0.008680555555555556,0,0,0.008680555555555556,0,0)" xlink:href="#az"/><use transform="matrix(0.008680555555555556,0,0,0.008680555555555556,10.052083333333334,0)" xlink:href="#ab"/><use transform="matrix(0.008680555555555556,0,0,0.008680555555555556,20.954861111111114,0)" xlink:href="#aA"/><use transform="matrix(0.008680555555555556,0,0,0.008680555555555556,32.54340277777778,0)" xlink:href="#Z"/></g><path d="M135 0v-1490h468l242 684c30 94 76 293 111 455 34-161 80-360 110-455l238-684h470V0h-307c0-447-3-765 11-1227-122 503-246 788-395 1227H826C676-435 552-717 427-1215c15 453 11 775 11 1215H135" id="aB"/><path d="M537 19C279 19 81-185 81-557c0-382 206-575 454-575 190 0 278 113 318 202h10v-560h300V0H868v-179h-15C812-89 719 19 537 19zm92-241c153 0 240-134 240-336 0-203-86-334-240-334-158 0-240 138-240 334 0 197 84 336 240 336" id="aC"/><path d="M513 14c-232 0-385-159-385-421v-711h300v659c0 139 76 222 202 222 127 0 217-86 217-234v-647h301V0H864l-4-232C797-74 683 14 513 14" id="aD"/><g id="k"><use transform="matrix(0.008680555555555556,0,0,0.008680555555555556,0,0)" xlink:href="#aB"/><use transform="matrix(0.008680555555555556,0,0,0.008680555555555556,16.5625,0)" xlink:href="#ab"/><use transform="matrix(0.008680555555555556,0,0,0.008680555555555556,27.46527777777778,0)" xlink:href="#aC"/><use transform="matrix(0.008680555555555556,0,0,0.008680555555555556,38.671875,0)" xlink:href="#aD"/><use transform="matrix(0.008680555555555556,0,0,0.008680555555555556,49.739583333333336,0)" xlink:href="#W"/><use transform="matrix(0.008680555555555556,0,0,0.008680555555555556,54.55729166666667,0)" xlink:href="#ag"/></g><path fill="#333" d="M135 0v-1490h305v1237h643V0H135" id="aE"/><path fill="#333" d="M628 22C291 22 81-210 81-554c0-346 210-578 547-578 336 0 547 232 547 578 0 344-211 576-547 576zm0-236c160 0 242-146 242-341 0-197-82-341-242-341S387-753 387-555c0 195 81 341 241 341" id="aF"/><path fill="#333" d="M135 0v-1490h581c339 0 533 192 533 485 0 204-94 351-264 424L1302 0H964L680-532H440V0H135zm305-779h220c186 0 274-77 274-226 0-150-88-233-275-233H440v459" id="aG"/><path fill="#333" d="M440 22C227 22 68-92 68-313c0-250 202-322 422-343 195-21 271-24 271-105 0-95-63-149-175-149-116 0-187 57-211 129l-275-46c57-194 237-305 487-305 240 0 474 108 474 379V0H777v-155h-10C713-51 605 22 440 22zm85-211c140 0 238-93 238-211v-121c-37 26-156 42-222 51-111 16-185 59-185 149 0 87 70 132 169 132" id="aH"/><g id="l"><use transform="matrix(0.008680555555555556,0,0,0.008680555555555556,0,0)" xlink:href="#aE"/><use transform="matrix(0.008680555555555556,0,0,0.008680555555555556,10.052083333333334,0)" xlink:href="#aF"/><use transform="matrix(0.008680555555555556,0,0,0.008680555555555556,20.954861111111114,0)" xlink:href="#aG"/><use transform="matrix(0.008680555555555556,0,0,0.008680555555555556,32.54340277777778,0)" xlink:href="#aH"/></g><path fill="#333" d="M169-607c0-330 107-732 258-974h279c-145 311-231 674-231 974 0 262 67 512 231 886H427C258-1 169-307 169-607" id="aI"/><path fill="#333" d="M49 0l509-1490h400L1480 0h-339l-115-346H497L386 0H49zm524-585h374c-75-213-124-402-192-666-66 268-110 453-182 666" id="aJ"/><path fill="#333" d="M818-733v240H140v-240h678" id="aK"/><path fill="#333" d="M690 20C314 20 94-261 94-744c0-482 221-766 596-766 376 0 597 284 597 766 0 483-219 764-597 764zm0-253c184 0 286-184 286-511 0-328-102-514-286-514-183 0-285 187-285 514s101 511 285 511" id="aL"/><path fill="#333" d="M124 0v-220l528-495c135-132 210-216 210-336 0-133-98-215-231-215-139 0-229 88-229 233H110c0-290 214-477 523-477 315 0 525 182 525 440 0 167-80 305-385 586L548-262v11h630V0H124" id="aM"/><path fill="#333" d="M67 279c166-379 230-627 230-886 0-300-86-663-230-974h278c151 241 258 644 258 974 0 302-90 608-258 886H67" id="aN"/><g id="m"><use transform="matrix(0.008680555555555556,0,0,0.008680555555555556,0,0)" xlink:href="#aI"/><use transform="matrix(0.008680555555555556,0,0,0.008680555555555556,7.022569444444445,0)" xlink:href="#aG"/><use transform="matrix(0.008680555555555556,0,0,0.008680555555555556,18.697916666666668,0)" xlink:href="#aJ"/><use transform="matrix(0.008680555555555556,0,0,0.008680555555555556,31.37152777777778,0)" xlink:href="#aK"/><use transform="matrix(0.008680555555555556,0,0,0.008680555555555556,39.6875,0)" xlink:href="#aL"/><use transform="matrix(0.008680555555555556,0,0,0.008680555555555556,51.67534722222222,0)" xlink:href="#aM"/><use transform="matrix(0.008680555555555556,0,0,0.008680555555555556,62.873263888888886,0)" xlink:href="#aN"/></g><path d="M789 20C394 20 94-260 94-744c0-487 300-766 695-766s695 279 695 766c0 264-89 467-233 597l215 271h-285L1058-29C976 3 886 20 789 20zm-94-532h261l108 139c70-83 110-208 110-371 0-321-154-495-385-495s-385 175-385 495c0 356 184 537 481 482" id="aO"/><g id="n"><use transform="matrix(0.008680555555555556,0,0,0.008680555555555556,0,0)" xlink:href="#aB"/><use transform="matrix(0.008680555555555556,0,0,0.008680555555555556,16.5625,0)" xlink:href="#aO"/><use transform="matrix(0.008680555555555556,0,0,0.008680555555555556,29.80902777777778,0)" xlink:href="#ah"/><use transform="matrix(0.008680555555555556,0,0,0.008680555555555556,41.67534722222222,0)" xlink:href="#ah"/></g><path d="M135 0v-1490h591c327 0 492 160 492 383 0 177-115 286-268 320v15c168 8 326 140 326 361 0 236-176 411-512 411H135zm305-251h264c179 0 258-76 258-189 0-125-97-215-250-215H440v404zm0-613h241c131 0 228-74 228-194 0-109-79-183-222-183H440v377" id="aP"/><path d="M128 0v-1490h300v802h17l366-430h347L740-633 1179 0H826L514-456l-86 97V0H128" id="aQ"/><g id="o"><use transform="matrix(0.008680555555555556,0,0,0.008680555555555556,0,0)" xlink:href="#aP"/><use transform="matrix(0.008680555555555556,0,0,0.008680555555555556,11.762152777777779,0)" xlink:href="#Y"/><use transform="matrix(0.008680555555555556,0,0,0.008680555555555556,18.567708333333336,0)" xlink:href="#ab"/><use transform="matrix(0.008680555555555556,0,0,0.008680555555555556,29.47048611111111,0)" xlink:href="#aQ"/><use transform="matrix(0.008680555555555556,0,0,0.008680555555555556,39.38368055555556,0)" xlink:href="#ag"/><use transform="matrix(0.008680555555555556,0,0,0.008680555555555556,49.973958333333336,0)" xlink:href="#Y"/></g><path d="M763 24c-353 0-583-224-583-531v-983h190v968c0 214 149 370 393 370 243 0 391-156 391-370v-968h190v983c0 307-230 531-581 531" id="aR"/><path d="M52 0l541-1490h220L1361 0h-200l-149-416H398L254 0H52zm404-582h497c-103-290-145-390-251-756-108 377-145 460-246 756" id="aS"/><path d="M98-1322v-168h1126v168H757V0H567v-1322H98" id="aT"/><g id="p"><use transform="matrix(0.010416666666666668,0,0,0.010416666666666668,0,0)" xlink:href="#aR"/><use transform="matrix(0.010416666666666668,0,0,0.010416666666666668,15.458333333333336,0)" xlink:href="#aS"/><use transform="matrix(0.010416666666666668,0,0,0.010416666666666668,30.177083333333336,0)" xlink:href="#as"/><use transform="matrix(0.010416666666666668,0,0,0.010416666666666668,43.90624999999999,0)" xlink:href="#aT"/></g><path fill="#333" d="M449 0L49-1490h333c89 395 194 758 253 1185 65-426 176-790 269-1185h317c93 394 201 758 268 1181 60-425 164-788 253-1181h334L1675 0h-348c-90-376-204-711-266-1118C1004-714 886-373 798 0H449" id="aU"/><path fill="#333" d="M128 0v-1118h300V0H128zm150-1264c-91 0-165-68-165-154 0-85 74-154 165-154 90 0 165 69 165 154 0 86-75 154-165 154" id="aV"/><path fill="#333" d="M135 0v-1490h980v253H440v416h609v249H440V0H135" id="aW"/><g id="r"><use transform="matrix(0.008680555555555556,0,0,0.008680555555555556,0,0)" xlink:href="#aU"/><use transform="matrix(0.008680555555555556,0,0,0.008680555555555556,18.446180555555557,0)" xlink:href="#aV"/><use transform="matrix(0.008680555555555556,0,0,0.008680555555555556,23.263888888888893,0)" xlink:href="#aK"/><use transform="matrix(0.008680555555555556,0,0,0.008680555555555556,31.579861111111114,0)" xlink:href="#aW"/><use transform="matrix(0.008680555555555556,0,0,0.008680555555555556,42.01388888888889,0)" xlink:href="#aV"/></g><path fill="#333" d="M568-82v-393H183v-240h385v-393h254v393h386v240H822v393H568" id="aX"/><use transform="matrix(0.008680555555555556,0,0,0.008680555555555556,0,0)" xlink:href="#aX" id="s"/><path fill="#333" d="M135 0v-1490h468l242 684c30 94 76 293 111 455 34-161 80-360 110-455l238-684h470V0h-307c0-447-3-765 11-1227-122 503-246 788-395 1227H826C676-435 552-717 427-1215c15 453 11 775 11 1215H135" id="aY"/><path fill="#333" d="M789 20C394 20 94-260 94-744c0-487 300-766 695-766s695 279 695 766c0 264-89 467-233 597l215 271h-285L1058-29C976 3 886 20 789 20zm-94-532h261l108 139c70-83 110-208 110-371 0-321-154-495-385-495s-385 175-385 495c0 356 184 537 481 482" id="aZ"/><path fill="#333" d="M75-1237v-253h1217v253H837V0H531v-1237H75" id="ba"/><g id="t"><use transform="matrix(0.008680555555555556,0,0,0.008680555555555556,0,0)" xlink:href="#aY"/><use transform="matrix(0.008680555555555556,0,0,0.008680555555555556,16.5625,0)" xlink:href="#aZ"/><use transform="matrix(0.008680555555555556,0,0,0.008680555555555556,29.80902777777778,0)" xlink:href="#ba"/><use transform="matrix(0.008680555555555556,0,0,0.008680555555555556,41.67534722222222,0)" xlink:href="#ba"/></g><path d="M135 0v-1490h980v253H440v416h609v249H440V0H135" id="bb"/><path d="M49 0l509-1490h400L1480 0h-339l-115-346H497L386 0H49zm524-585h374c-75-213-124-402-192-666-66 268-110 453-182 666" id="bc"/><path d="M135 0v-1490h581c339 0 533 210 533 503 0 295-197 500-540 500H440V0H135zm305-733h220c186 0 274-104 274-254s-88-251-275-251H440v505" id="bd"/><path d="M440-1490V0H135v-1490h305" id="be"/><g id="u"><use transform="matrix(0.008680555555555556,0,0,0.008680555555555556,0,0)" xlink:href="#bb"/><use transform="matrix(0.008680555555555556,0,0,0.008680555555555556,10.13888888888889,0)" xlink:href="#Z"/><use transform="matrix(0.008680555555555556,0,0,0.008680555555555556,20.460069444444443,0)" xlink:href="#aa"/><use transform="matrix(0.008680555555555556,0,0,0.008680555555555556,30.416666666666664,0)" xlink:href="#X"/><use transform="matrix(0.008680555555555556,0,0,0.008680555555555556,36.92708333333333,0)" xlink:href="#bc"/><use transform="matrix(0.008680555555555556,0,0,0.008680555555555556,50.19965277777777,0)" xlink:href="#bd"/><use transform="matrix(0.008680555555555556,0,0,0.008680555555555556,61.71874999999999,0)" xlink:href="#be"/></g><g id="v"><use transform="matrix(0.008680555555555556,0,0,0.008680555555555556,0,0)" xlink:href="#aP"/><use transform="matrix(0.008680555555555556,0,0,0.008680555555555556,11.762152777777779,0)" xlink:href="#Z"/><use transform="matrix(0.008680555555555556,0,0,0.008680555555555556,22.083333333333336,0)" xlink:href="#ae"/><use transform="matrix(0.008680555555555556,0,0,0.008680555555555556,32.54340277777778,0)" xlink:href="#aQ"/><use transform="matrix(0.008680555555555556,0,0,0.008680555555555556,42.45659722222222,0)" xlink:href="#ag"/><use transform="matrix(0.008680555555555556,0,0,0.008680555555555556,53.046875,0)" xlink:href="#ac"/><use transform="matrix(0.008680555555555556,0,0,0.008680555555555556,64.11458333333333,0)" xlink:href="#aC"/></g><path d="M135 0v-1490h340l471 754c59 97 122 210 187 365-32-387-14-721-19-1119h312V0h-341C855-382 627-689 427-1113c32 420 16 695 20 1113H135" id="bf"/><path d="M42 0l360-574-338-544h324c72 124 151 261 209 394 58-134 140-271 215-394h318L785-570 1146 0H824c-79-136-169-280-234-425C528-278 439-134 360 0H42" id="bg"/><g id="w"><use transform="matrix(0.008680555555555556,0,0,0.008680555555555556,0,0)" xlink:href="#bf"/><use transform="matrix(0.008680555555555556,0,0,0.008680555555555556,13.550347222222223,0)" xlink:href="#ag"/><use transform="matrix(0.008680555555555556,0,0,0.008680555555555556,23.784722222222225,0)" xlink:href="#bg"/><use transform="matrix(0.008680555555555556,0,0,0.008680555555555556,34.34895833333333,0)" xlink:href="#X"/></g><g id="x"><use transform="matrix(0.008680555555555556,0,0,0.008680555555555556,0,0)" xlink:href="#bc"/><use transform="matrix(0.008680555555555556,0,0,0.008680555555555556,13.272569444444445,0)" xlink:href="#aj"/><use transform="matrix(0.008680555555555556,0,0,0.008680555555555556,24.479166666666668,0)" xlink:href="#aj"/></g><path d="M659 0H135v-1490h529c448 0 721 280 721 744 0 466-273 746-726 746zM440-263h204c287 0 437-148 437-483 0-333-150-481-435-481H440v964" id="bh"/><g id="y"><use transform="matrix(0.008680555555555556,0,0,0.008680555555555556,0,0)" xlink:href="#bh"/><use transform="matrix(0.008680555555555556,0,0,0.008680555555555556,12.838541666666668,0)" xlink:href="#Z"/><use transform="matrix(0.008680555555555556,0,0,0.008680555555555556,23.159722222222225,0)" xlink:href="#X"/><use transform="matrix(0.008680555555555556,0,0,0.008680555555555556,29.756944444444446,0)" xlink:href="#Z"/><use transform="matrix(0.008680555555555556,0,0,0.008680555555555556,40.078125,0)" xlink:href="#aP"/><use transform="matrix(0.008680555555555556,0,0,0.008680555555555556,51.84027777777778,0)" xlink:href="#Z"/><use transform="matrix(0.008680555555555556,0,0,0.008680555555555556,62.161458333333336,0)" xlink:href="#aa"/><use transform="matrix(0.008680555555555556,0,0,0.008680555555555556,72.11805555555556,0)" xlink:href="#ag"/></g><path d="M789 20c-398 0-667-293-667-764 0-473 273-766 655-766 315 0 558 198 612 487h-196c-61-191-204-311-415-311-262 0-471 207-471 590 0 380 208 588 482 588 249 0 420-165 425-427H828v-166h572v163c0 370-256 606-611 606" id="bi"/><path d="M409 0L70-1118h191c89 329 165 560 243 925 75-353 154-601 240-925h192c85 325 161 564 235 922 77-354 157-598 244-922h191L1267 0h-179c-86-307-176-590-250-913C763-588 675-308 588 0H409" id="bj"/><path d="M140 405l46-156c120 36 205 19 263-150l32-93L54-1118h197c107 313 237 620 324 950 87-331 219-637 326-950h196L606 167c-68 178-176 259-334 259-64 0-113-12-132-21" id="bk"/><g id="z"><use transform="matrix(0.010850694444444444,0,0,0.010850694444444444,0,0)" xlink:href="#bi"/><use transform="matrix(0.010850694444444444,0,0,0.010850694444444444,16.57986111111111,0)" xlink:href="#ao"/><use transform="matrix(0.010850694444444444,0,0,0.010850694444444444,29.05815972222222,0)" xlink:href="#an"/><use transform="matrix(0.010850694444444444,0,0,0.010850694444444444,36.11111111111111,0)" xlink:href="#av"/><use transform="matrix(0.010850694444444444,0,0,0.010850694444444444,48.66536458333333,0)" xlink:href="#bj"/><use transform="matrix(0.010850694444444444,0,0,0.010850694444444444,66.85112847222221,0)" xlink:href="#ao"/><use transform="matrix(0.010850694444444444,0,0,0.010850694444444444,79.00390625,0)" xlink:href="#bk"/></g><path d="M180 0v-1490h224l606 953c40 63 108 177 176 312-27-437-7-821-13-1265h190V0h-226C860-448 622-778 356-1262c27 476 11 792 15 1262H180" id="bl"/><g id="A"><use transform="matrix(0.010850694444444444,0,0,0.010850694444444444,0,0)" xlink:href="#bl"/><use transform="matrix(0.010850694444444444,0,0,0.010850694444444444,16.74262152777778,0)" xlink:href="#ar"/><use transform="matrix(0.010850694444444444,0,0,0.010850694444444444,30.06727430555556,0)" xlink:href="#ak"/><use transform="matrix(0.010850694444444444,0,0,0.010850694444444444,43.674045138888886,0)" xlink:href="#av"/></g><path d="M338-670V0H158v-1118h173l1 207c72-158 192-221 342-221 226 0 378 139 378 422V0H872v-695c0-172-96-275-252-275-161 0-282 109-282 300" id="bm"/><path d="M538 24C308 24 148-78 108-271l171-41c32 123 123 178 257 178 156 0 256-77 256-169 0-77-54-128-164-154l-186-44c-203-48-300-148-300-305 0-192 176-326 414-326 230 0 351 112 402 269l-163 42c-31-80-94-158-238-158-133 0-233 69-233 162 0 83 57 129 188 160l169 40c203 48 298 149 298 302 0 196-179 339-441 339" id="bn"/><path d="M158 0v-1118h174v172h12c41-113 157-188 290-188 26 0 70 2 91 3v181c-11-2-60-10-108-10-161 0-279 109-279 260V0H158" id="bo"/><g id="B"><use transform="matrix(0.010850694444444444,0,0,0.010850694444444444,0,0)" xlink:href="#R"/><use transform="matrix(0.010850694444444444,0,0,0.010850694444444444,14.2578125,0)" xlink:href="#av"/><use transform="matrix(0.010850694444444444,0,0,0.010850694444444444,27.213541666666664,0)" xlink:href="#bm"/><use transform="matrix(0.010850694444444444,0,0,0.010850694444444444,40.34288194444444,0)" xlink:href="#bn"/><use transform="matrix(0.010850694444444444,0,0,0.010850694444444444,52.072482638888886,0)" xlink:href="#ar"/><use transform="matrix(0.010850694444444444,0,0,0.010850694444444444,65.39713541666666,0)" xlink:href="#bo"/></g><g id="C"><use transform="matrix(0.013020833333333334,0,0,0.013020833333333334,0,0)" xlink:href="#bj"/><use transform="matrix(0.013020833333333334,0,0,0.013020833333333334,21.822916666666668,0)" xlink:href="#ao"/><use transform="matrix(0.013020833333333334,0,0,0.013020833333333334,36.796875,0)" xlink:href="#an"/><use transform="matrix(0.013020833333333334,0,0,0.013020833333333334,45.26041666666667,0)" xlink:href="#av"/><use transform="matrix(0.013020833333333334,0,0,0.013020833333333334,60.80729166666667,0)" xlink:href="#bo"/></g><path d="M481 0L54-1118h197c107 314 236 620 325 951 87-331 217-637 324-951h197L670 0H481" id="bp"/><g id="D"><use transform="matrix(0.013020833333333334,0,0,0.013020833333333334,0,0)" xlink:href="#ap"/><use transform="matrix(0.013020833333333334,0,0,0.013020833333333334,6.458333333333334,0)" xlink:href="#av"/><use transform="matrix(0.013020833333333334,0,0,0.013020833333333334,21.484375,0)" xlink:href="#bp"/><use transform="matrix(0.013020833333333334,0,0,0.013020833333333334,35.950520833333336,0)" xlink:href="#av"/><use transform="matrix(0.013020833333333334,0,0,0.013020833333333334,51.497395833333336,0)" xlink:href="#ap"/></g><path d="M158 418v-1536h174v179h20c37-59 106-193 324-193 279 0 474 222 474 576 0 356-194 580-473 580-213 0-288-135-325-197h-14v591H158zm492-555c209 0 317-186 317-421 0-232-105-413-317-413-206 0-314 166-314 413 0 249 111 421 314 421" id="bq"/><g id="E"><use transform="matrix(0.013020833333333334,0,0,0.013020833333333334,0,0)" xlink:href="#aS"/><use transform="matrix(0.013020833333333334,0,0,0.013020833333333334,18.3984375,0)" xlink:href="#bq"/><use transform="matrix(0.013020833333333334,0,0,0.013020833333333334,34.7265625,0)" xlink:href="#bq"/></g><g id="F"><use transform="matrix(0.013020833333333334,0,0,0.013020833333333334,0,0)" xlink:href="#bi"/><use transform="matrix(0.013020833333333334,0,0,0.013020833333333334,19.895833333333336,0)" xlink:href="#ao"/><use transform="matrix(0.013020833333333334,0,0,0.013020833333333334,34.86979166666667,0)" xlink:href="#an"/><use transform="matrix(0.013020833333333334,0,0,0.013020833333333334,43.33333333333334,0)" xlink:href="#av"/><use transform="matrix(0.013020833333333334,0,0,0.013020833333333334,58.3984375,0)" xlink:href="#bj"/><use transform="matrix(0.013020833333333334,0,0,0.013020833333333334,80.22135416666667,0)" xlink:href="#ao"/><use transform="matrix(0.013020833333333334,0,0,0.013020833333333334,94.8046875,0)" xlink:href="#bk"/></g><g id="G"><use transform="matrix(0.013020833333333334,0,0,0.013020833333333334,0,0)" xlink:href="#bl"/><use transform="matrix(0.013020833333333334,0,0,0.013020833333333334,20.091145833333336,0)" xlink:href="#ar"/><use transform="matrix(0.013020833333333334,0,0,0.013020833333333334,36.08072916666667,0)" xlink:href="#ak"/><use transform="matrix(0.013020833333333334,0,0,0.013020833333333334,52.40885416666667,0)" xlink:href="#av"/></g><g id="H"><use transform="matrix(0.013020833333333334,0,0,0.013020833333333334,0,0)" xlink:href="#R"/><use transform="matrix(0.013020833333333334,0,0,0.013020833333333334,17.109375,0)" xlink:href="#av"/><use transform="matrix(0.013020833333333334,0,0,0.013020833333333334,32.65625,0)" xlink:href="#bo"/><use transform="matrix(0.013020833333333334,0,0,0.013020833333333334,43.111979166666664,0)" xlink:href="#bp"/><use transform="matrix(0.013020833333333334,0,0,0.013020833333333334,57.578125,0)" xlink:href="#av"/><use transform="matrix(0.013020833333333334,0,0,0.013020833333333334,73.125,0)" xlink:href="#bo"/></g><path fill="#333" d="M768-1560L288 224H28l480-1784h260" id="br"/><path fill="#333" d="M128 0v-1118h278l12 217c60-163 185-234 319-234 143 0 236 81 288 251 63-172 205-251 359-251 205 0 357 138 357 381V0h-301v-697c0-126-76-187-177-187-114 0-184 79-184 196V0H789v-705c0-109-72-179-174-179-106 0-187 74-187 208V0H128" id="bs"/><path fill="#333" d="M1163 418H863v-597h-10C812-89 719 19 537 19 279 19 81-185 81-557c0-382 206-575 454-575 190 0 278 113 318 202h15v-188h295V418zM629-222c153 0 240-134 240-336 0-203-86-334-240-334-158 0-240 138-240 334 0 197 84 336 240 336" id="bt"/><path fill="#333" d="M683-1118v229H474v562c0 71 29 104 102 104 23 0 73-7 95-13l43 225C647 9 580 16 520 16 296 16 174-96 174-301v-588H20v-229h154v-266h300v266h209" id="bu"/><g id="I"><use transform="matrix(0.013020833333333334,0,0,0.013020833333333334,0,0)" xlink:href="#aU"/><use transform="matrix(0.013020833333333334,0,0,0.013020833333333334,27.669270833333336,0)" xlink:href="#aV"/><use transform="matrix(0.013020833333333334,0,0,0.013020833333333334,34.895833333333336,0)" xlink:href="#aW"/><use transform="matrix(0.013020833333333334,0,0,0.013020833333333334,50.546875,0)" xlink:href="#aV"/><use transform="matrix(0.013020833333333334,0,0,0.013020833333333334,57.7734375,0)" xlink:href="#br"/><use transform="matrix(0.013020833333333334,0,0,0.013020833333333334,68.125,0)" xlink:href="#bs"/><use transform="matrix(0.013020833333333334,0,0,0.013020833333333334,92.4609375,0)" xlink:href="#bt"/><use transform="matrix(0.013020833333333334,0,0,0.013020833333333334,109.27083333333334,0)" xlink:href="#bu"/><use transform="matrix(0.013020833333333334,0,0,0.013020833333333334,118.09895833333334,0)" xlink:href="#bu"/></g><path d="M180 0v-1490h901v168H370v510h643v168H370V0H180" id="bv"/><g id="J"><use transform="matrix(0.013020833333333334,0,0,0.013020833333333334,0,0)" xlink:href="#bv"/><use transform="matrix(0.013020833333333334,0,0,0.013020833333333334,14.9609375,0)" xlink:href="#bo"/><use transform="matrix(0.013020833333333334,0,0,0.013020833333333334,24.557291666666664,0)" xlink:href="#ar"/><use transform="matrix(0.013020833333333334,0,0,0.013020833333333334,40.546875,0)" xlink:href="#bm"/><use transform="matrix(0.013020833333333334,0,0,0.013020833333333334,56.302083333333336,0)" xlink:href="#an"/><use transform="matrix(0.013020833333333334,0,0,0.013020833333333334,64.765625,0)" xlink:href="#av"/><use transform="matrix(0.013020833333333334,0,0,0.013020833333333334,80.3125,0)" xlink:href="#bm"/><use transform="matrix(0.013020833333333334,0,0,0.013020833333333334,96.06770833333333,0)" xlink:href="#ak"/></g><path d="M645 0H180v-1490h484c435 0 692 280 692 742 0 466-257 748-711 748zM370-168h263c363 0 539-218 539-580 0-358-176-574-521-574H370v1154" id="bw"/><path d="M180 0v-1490h528c311 0 458 177 458 395 0 191-114 278-244 313v14c139 9 302 137 302 371 0 225-148 397-499 397H180zm190-168h350c232 0 321-102 321-231 0-149-120-277-311-277H370v508zm0-668h328c160 0 286-101 286-255 0-129-87-231-280-231H370v486" id="bx"/><g id="K"><use transform="matrix(0.013020833333333334,0,0,0.013020833333333334,0,0)" xlink:href="#bw"/><use transform="matrix(0.013020833333333334,0,0,0.013020833333333334,19.244791666666668,0)" xlink:href="#ao"/><use transform="matrix(0.013020833333333334,0,0,0.013020833333333334,34.21875,0)" xlink:href="#an"/><use transform="matrix(0.013020833333333334,0,0,0.013020833333333334,43.07291666666667,0)" xlink:href="#ao"/><use transform="matrix(0.013020833333333334,0,0,0.013020833333333334,58.046875,0)" xlink:href="#bx"/><use transform="matrix(0.013020833333333334,0,0,0.013020833333333334,75.49479166666667,0)" xlink:href="#ao"/><use transform="matrix(0.013020833333333334,0,0,0.013020833333333334,90.46875,0)" xlink:href="#bn"/><use transform="matrix(0.013020833333333334,0,0,0.013020833333333334,104.54427083333333,0)" xlink:href="#av"/></g><g id="L"><use transform="matrix(0.013020833333333334,0,0,0.013020833333333334,0,0)" xlink:href="#R"/><use transform="matrix(0.013020833333333334,0,0,0.013020833333333334,17.109375,0)" xlink:href="#av"/><use transform="matrix(0.013020833333333334,0,0,0.013020833333333334,32.65625,0)" xlink:href="#bm"/><use transform="matrix(0.013020833333333334,0,0,0.013020833333333334,48.411458333333336,0)" xlink:href="#bn"/><use transform="matrix(0.013020833333333334,0,0,0.013020833333333334,62.48697916666667,0)" xlink:href="#ar"/><use transform="matrix(0.013020833333333334,0,0,0.013020833333333334,78.4765625,0)" xlink:href="#bo"/><use transform="matrix(0.013020833333333334,0,0,0.013020833333333334,88.515625,0)" xlink:href="#bn"/></g><g id="M"><use transform="matrix(0.013020833333333334,0,0,0.013020833333333334,0,0)" xlink:href="#bl"/><use transform="matrix(0.013020833333333334,0,0,0.013020833333333334,20.091145833333336,0)" xlink:href="#ar"/><use transform="matrix(0.013020833333333334,0,0,0.013020833333333334,36.08072916666667,0)" xlink:href="#ak"/><use transform="matrix(0.013020833333333334,0,0,0.013020833333333334,52.40885416666667,0)" xlink:href="#av"/></g><g id="N"><use transform="matrix(0.013020833333333334,0,0,0.013020833333333334,0,0)" xlink:href="#R"/><use transform="matrix(0.013020833333333334,0,0,0.013020833333333334,17.109375,0)" xlink:href="#av"/><use transform="matrix(0.013020833333333334,0,0,0.013020833333333334,32.65625,0)" xlink:href="#bm"/><use transform="matrix(0.013020833333333334,0,0,0.013020833333333334,48.411458333333336,0)" xlink:href="#bn"/><use transform="matrix(0.013020833333333334,0,0,0.013020833333333334,62.48697916666667,0)" xlink:href="#ar"/><use transform="matrix(0.013020833333333334,0,0,0.013020833333333334,78.4765625,0)" xlink:href="#bo"/></g><g id="O"><use transform="matrix(0.008680555555555556,0,0,0.008680555555555556,0,0)" xlink:href="#bs"/><use transform="matrix(0.008680555555555556,0,0,0.008680555555555556,16.223958333333336,0)" xlink:href="#bt"/><use transform="matrix(0.008680555555555556,0,0,0.008680555555555556,27.430555555555557,0)" xlink:href="#bu"/><use transform="matrix(0.008680555555555556,0,0,0.008680555555555556,33.31597222222222,0)" xlink:href="#bu"/></g><path d="M180 0v-1490h190v644h782v-644h190V0h-190v-678H370V0H180" id="by"/><path d="M692-1560L212 224H46l480-1784h166" id="bz"/><path d="M458 0L52-1490h194c108 439 233 855 324 1313 92-459 221-873 331-1313h216c110 438 234 854 330 1307 92-455 216-869 323-1307h196L1558 0h-221l-256-944c-26-95-50-200-73-331-22 122-44 223-73 331L680 0H458" id="bA"/><path d="M677 24c-213 0-288-135-325-197h-20V0H158v-1490h180v551h14c37-59 106-193 324-193 279 0 474 222 474 576 0 356-194 580-473 580zm-27-161c209 0 317-186 317-421 0-232-105-413-317-413-206 0-314 166-314 413 0 249 111 421 314 421" id="bB"/><path d="M613 24c-304 0-509-231-509-576 0-350 205-580 509-580 216 0 392 114 453 309l-173 49c-33-115-133-197-280-197-223 0-326 196-326 419 0 220 103 415 326 415 150 0 252-85 285-206l172 49C1010-95 832 24 613 24" id="bC"/><path d="M158 0v-1490h180v865h22l478-493h223L593-638 1096 0H865L456-523 338-412V0H158" id="bD"/><g id="P"><use transform="matrix(0.010416666666666668,0,0,0.010416666666666668,0,0)" xlink:href="#by"/><use transform="matrix(0.010416666666666668,0,0,0.010416666666666668,15.854166666666668,0)" xlink:href="#aT"/><use transform="matrix(0.010416666666666668,0,0,0.010416666666666668,29.625000000000004,0)" xlink:href="#aT"/><use transform="matrix(0.010416666666666668,0,0,0.010416666666666668,43.395833333333336,0)" xlink:href="#S"/><use transform="matrix(0.010416666666666668,0,0,0.010416666666666668,57.02083333333334,0)" xlink:href="#bz"/><use transform="matrix(0.010416666666666668,0,0,0.010416666666666668,64.70833333333334,0)" xlink:href="#bA"/><use transform="matrix(0.010416666666666668,0,0,0.010416666666666668,84.64583333333334,0)" xlink:href="#av"/><use transform="matrix(0.010416666666666668,0,0,0.010416666666666668,97.08333333333334,0)" xlink:href="#bB"/><use transform="matrix(0.010416666666666668,0,0,0.010416666666666668,110.14583333333334,0)" xlink:href="#R"/><use transform="matrix(0.010416666666666668,0,0,0.010416666666666668,123.83333333333334,0)" xlink:href="#ar"/><use transform="matrix(0.010416666666666668,0,0,0.010416666666666668,136.625,0)" xlink:href="#bC"/><use transform="matrix(0.010416666666666668,0,0,0.010416666666666668,148.8125,0)" xlink:href="#bD"/><use transform="matrix(0.010416666666666668,0,0,0.010416666666666668,160.04166666666669,0)" xlink:href="#av"/><use transform="matrix(0.010416666666666668,0,0,0.010416666666666668,172.47916666666669,0)" xlink:href="#an"/></g></defs></g></svg>